<svg width="29" height="38" viewBox="0 0 29 38" fill="none" xmlns="http://www.w3.org/2000/svg">
<path d="M13.8595 4.31944L13.8595 4.31944C13.1246 4.36969 12.4488 4.65721 11.9164 5.13109L11.7992 5.23539L11.7003 5.11365C10.7782 3.9791 9.16714 3.56926 7.78391 4.21622C6.40076 4.86315 5.68276 6.36233 5.96251 7.79731L5.99254 7.9513L5.83735 7.97438C5.13232 8.07922 4.47851 8.41361 3.96883 8.94551L3.96882 8.94552C3.36539 9.57512 3.04353 10.4011 3.06199 11.2727L3.06199 11.2727C3.08041 12.1443 3.43696 12.9558 4.06674 13.559L13.8595 4.31944ZM13.8595 4.31944C14.7296 4.25987 15.5699 4.54233 16.227 5.11517L16.3256 5.00211M13.8595 4.31944L16.3256 5.00211M16.3256 5.00211L16.227 5.11517C16.8843 5.6881 17.2785 6.48191 17.3378 7.35177C17.3561 7.62229 17.2889 8.16626 16.5198 10.0876C16.2418 10.7821 15.9467 11.4697 15.7251 11.9746L15.6577 12.128L15.8176 12.178C17.3154 12.6472 18.6189 13.7181 19.3345 15.248C20.0887 16.8603 21.3852 21.0429 22.156 24.9772C22.5859 27.1719 22.7982 28.9904 22.7899 30.3849L22.9399 30.3858L22.7899 30.3849C22.7843 31.3271 22.6751 32.0632 22.4667 32.6089C22.2594 33.1517 21.9572 33.4988 21.5657 33.6819C21.1742 33.865 20.7141 33.8745 20.1646 33.6856C19.6121 33.4958 18.9772 33.1077 18.2504 32.5081L18.1549 32.6238L18.2504 32.5081C17.1747 31.6206 15.915 30.2919 14.5061 28.5551C11.9805 25.4416 9.60133 21.7653 8.8473 20.153C8.13172 18.6231 8.14531 16.9362 8.74539 15.4857L8.80942 15.331M16.3256 5.00211L8.80942 15.331M8.80942 15.331L8.64856 15.2843C8.11908 15.1308 7.4023 14.9167 6.69075 14.6848L6.64426 14.8274M8.80942 15.331L6.64426 14.8274M6.64426 14.8274L6.69074 14.6847M6.64426 14.8274L6.69074 14.6847M4.74597 12.8497L4.74616 12.8495C4.30656 12.4284 4.05705 11.8606 4.04421 11.252L4.74597 12.8497ZM4.74597 12.8497L4.75296 12.8556M4.74597 12.8497L4.75296 12.8556M4.75296 12.8556C4.83658 12.9264 5.00416 13.012 5.22567 13.1082C5.45423 13.2074 5.75931 13.3257 6.13439 13.4593C6.88489 13.7266 7.92146 14.0571 9.19862 14.4206L9.30109 14.4498L9.36238 14.3626C9.5649 14.0747 9.79488 13.804 10.0503 13.5546L10.1524 13.4549L10.0579 13.3479C8.34165 11.4057 7.0511 9.90926 6.45808 8.99028L6.414 8.92197L6.33269 8.92161C5.70868 8.91892 5.11625 9.16825 4.67814 9.62525L4.67812 9.62526M4.75296 12.8556L4.67812 9.62526M4.67812 9.62526C4.25662 10.065 4.03132 10.6432 4.04421 11.252L4.67812 9.62526ZM6.69074 14.6847C4.72312 14.0435 4.26247 13.7464 4.06676 13.559L6.69074 14.6847ZM12.2887 12.1989L12.4094 12.1592L12.3901 12.0337C12.2329 11.0073 12.0363 9.75015 11.834 8.65316C11.7328 8.10473 11.63 7.59482 11.5296 7.17299C11.43 6.75484 11.3304 6.4118 11.2334 6.20445C10.7006 5.0654 9.34 4.57295 8.20012 5.1061C7.06035 5.63919 6.56627 6.99914 7.09902 8.13817C7.19317 8.33947 7.38344 8.62295 7.63087 8.9541C7.88045 9.28812 8.19521 9.67978 8.54515 10.1002C9.24513 10.941 10.09 11.9018 10.8446 12.7548L10.9285 12.8496L11.036 12.7829C11.2281 12.6638 11.4287 12.5544 11.6382 12.4565C11.8522 12.3564 12.0694 12.2709 12.2887 12.1989ZM16.4415 29.0345L16.2604 29.1192L16.3923 29.2694C17.7636 30.8303 18.8113 31.7622 19.576 32.2796C19.9581 32.5382 20.2744 32.6966 20.5289 32.7767C20.7784 32.8553 20.9919 32.8657 21.1495 32.792C21.3262 32.7094 21.4683 32.5044 21.5738 32.2056C21.6819 31.8999 21.7624 31.4659 21.7938 30.8772C21.8564 29.6991 21.723 27.8769 21.192 25.1659C20.4377 21.3154 19.1814 17.2392 18.4447 15.6641C17.3216 13.2632 14.4553 12.2234 12.0545 13.3463C9.65371 14.4692 8.61423 17.3357 9.73722 19.7367C10.4738 21.3118 12.7972 24.889 15.2691 27.9362C15.3567 28.0442 15.4429 28.1494 15.5283 28.2528L15.6022 28.3425L15.7075 28.2933L17.8234 27.3036C18.0691 27.1887 18.3615 27.2947 18.4765 27.5405C18.5914 27.7862 18.4854 28.0786 18.2396 28.1935L16.4415 29.0345ZM16.3577 7.42193L16.358 7.42193L16.3573 7.41287C16.3163 6.81101 16.0402 6.2556 15.5814 5.85578C15.1225 5.45569 14.5343 5.258 13.9265 5.29961C13.2949 5.34284 12.7238 5.63783 12.3258 6.11859L12.2739 6.18129L12.2982 6.25898C12.6377 7.34507 12.9792 9.40085 13.3501 11.8138L13.3717 11.9543L13.5132 11.9402C13.8636 11.9054 14.2139 11.9028 14.56 11.9316L14.6661 11.9405L14.7094 11.8431C15.2491 10.6297 15.6599 9.62212 15.9358 8.87399C16.0737 8.50009 16.1784 8.18953 16.2488 7.94968C16.317 7.71707 16.3585 7.53273 16.3577 7.42193Z" fill="black" stroke="#F5FAFF" stroke-width="0.3"/>
<path d="M13.2551 17.5124C13.5008 17.3974 13.7932 17.5035 13.9081 17.7492C14.0231 17.9949 13.917 18.2873 13.6713 18.4023L11.6162 19.3635C11.3705 19.4784 11.0781 19.3724 10.9632 19.1266C10.8483 18.8809 10.9543 18.5885 11.2 18.4736L13.2551 17.5124Z" fill="black" stroke="#F5FAFF" stroke-width="0.3"/>
<path d="M15.0262 21.8534L18.3146 20.3153C18.5603 20.2004 18.8527 20.3064 18.9676 20.5522C19.0825 20.7979 18.9765 21.0903 18.7308 21.2052L15.4424 22.7432C15.1967 22.8582 14.9043 22.7521 14.7894 22.5064C14.6744 22.2607 14.7805 21.9683 15.0262 21.8534Z" fill="black" stroke="#F5FAFF" stroke-width="0.3"/>
</svg>
