<svg width="25" height="25" viewBox="0 0 25 25" fill="none" xmlns="http://www.w3.org/2000/svg">
<path d="M19.0223 9.61568C18.6463 9.61543 18.3531 9.92552 18.3398 10.2979C18.3268 10.6613 18.5974 10.9807 18.9734 10.9809C19.3323 10.9812 19.6422 10.68 19.6559 10.2988C19.6695 9.91755 19.3812 9.61593 19.0223 9.61568Z" fill="#020202"/>
<path d="M5.02375 7.30339C4.68205 7.30315 4.41562 7.58666 4.40386 7.91466C4.39211 8.24266 4.63822 8.52651 4.97991 8.52675C5.30452 8.52697 5.57918 8.25234 5.59126 7.91547C5.60333 7.5786 5.34836 7.30361 5.02375 7.30339Z" fill="#020202"/>
<path d="M23.4457 14.5295L23.446 14.5314C23.4612 14.6535 23.4311 14.7872 23.3565 14.9112C23.2618 15.0626 23.1492 15.1093 22.9138 15.207L22.9044 15.2109L22.9044 15.2109L22.9018 15.212C20.1511 16.4129 16.721 16.1447 13.8253 15.5416C11.1288 14.9733 9.0518 14.1377 8.76695 14.0231C8.75513 14.0183 8.7464 14.0148 8.74084 14.0126C7.91906 13.6802 7.11634 13.5791 6.34227 13.7172C5.5681 13.8553 4.83304 14.2308 4.14434 14.8352C3.38488 15.4974 2.87745 16.2753 2.6289 16.6879L2.58373 16.7629L2.62457 16.8373C3.47252 18.3831 4.73483 19.2144 6.38821 19.2798L6.38901 19.2798C7.06935 19.3031 7.69319 19.192 8.14706 19.0746C8.37434 19.0159 8.56001 18.9553 8.69009 18.9086C8.75513 18.8852 8.80652 18.8652 8.84252 18.8505C8.86045 18.8432 8.87498 18.837 8.88572 18.8322L8.90066 18.8253C8.90207 18.8246 8.90401 18.8237 8.90622 18.8225C9.19841 18.6942 9.53447 18.8774 9.58302 19.212L9.58308 19.2124C9.82785 20.867 9.58227 22.0984 8.88357 22.9173C8.09099 23.8379 6.99447 23.8803 6.82765 23.8802C6.72982 23.8801 6.64641 23.8537 6.56678 23.8046C6.48232 23.7508 5.42845 23.0688 4.29045 21.8783C3.14744 20.6825 1.92947 18.9841 1.51274 16.9038C1.02809 14.4823 1.54519 11.736 3.42195 9.23838L3.42221 9.23803C3.61494 8.98007 3.97499 8.95811 4.18555 9.1849C4.35853 9.37122 4.3696 9.66279 4.20648 9.87968L4.2061 9.8802C2.83726 11.7159 2.43279 13.5101 2.3765 14.8379L2.35821 15.2695L2.64021 14.9327C3.60575 13.7796 4.6829 13.0722 5.78929 12.7671C6.89522 12.4622 8.04145 12.5561 9.15108 13.0238C9.19803 13.0436 11.339 13.926 14.1013 14.4975L14.3766 14.5545L14.2772 14.2932C13.0869 11.1631 13.3566 8.06406 15.9676 5.98851L16.1986 5.80483L15.9215 5.72797C14.7166 5.39385 13.4108 5.31276 12.1371 5.41039C11.0725 5.4902 9.82547 5.722 8.80933 6.12751L8.80876 6.12773C8.37982 6.30087 7.96915 6.52784 7.48176 6.85031L7.48176 6.8503L7.48068 6.85103C7.46367 6.86249 7.44753 6.87234 7.42865 6.88386C7.42227 6.88776 7.41557 6.89185 7.40842 6.89626C7.38363 6.91153 7.35427 6.93015 7.32554 6.95279C7.12698 7.09063 6.86284 7.06495 6.69806 6.88747L6.69807 6.88746L6.6966 6.88591C6.47233 6.65152 6.52593 6.25565 6.79914 6.06908C6.79925 6.06901 6.79936 6.06893 6.79947 6.06886L6.87758 6.01625L6.9556 5.9637C6.95573 5.96361 6.95587 5.96352 6.956 5.96343C7.88624 5.34539 8.68587 4.97277 10.0025 4.67675L10.1962 4.63322L10.1092 4.45974C9.74271 3.72881 9.09056 2.89818 7.50745 2.52228L7.50747 2.52223L7.50364 2.52143C7.01554 2.41916 6.96832 1.68538 7.48423 1.49772C9.65481 0.729828 11.8203 0.714189 13.5733 2.04852L13.5734 2.04859C14.563 2.80058 15.1468 3.79685 15.4588 4.4767L15.4891 4.54276L15.5608 4.5573C20.3926 5.53629 22.8742 9.40184 23.4457 14.5295ZM13.9606 14.3137C13.9723 14.3452 13.9841 14.3767 13.9961 14.4082L14.1366 14.3507L14.172 14.2039C14.1394 14.1971 14.1069 14.1903 14.0744 14.1835C12.9643 11.1326 13.2295 8.08365 15.7324 5.99013C15.7656 5.99891 15.7988 6.00788 15.8318 6.01704L15.8766 5.87251L15.7857 5.7565C15.7569 5.77941 15.7284 5.80243 15.7001 5.82557C14.5642 5.53633 13.3412 5.46802 12.1433 5.55985L13.9606 14.3137ZM7.56157 6.97438C8.04319 6.65574 8.44438 6.4345 8.86076 6.26644L7.56157 6.97438ZM11.1953 4.35487L11.2381 4.45566L11.3487 4.44081C12.0623 4.34491 12.9607 4.28422 13.9385 4.34618L14.25 4.36592L14.079 4.11031C13.3536 3.02652 12.0242 1.86043 9.75145 2.05078L9.3435 2.08494L9.66726 2.3221C10.5446 2.96477 10.9468 3.7699 11.1953 4.35487ZM8.66469 20.2108L8.65822 20.0272L8.47918 20.077C7.10575 20.4588 5.65412 20.4639 4.3783 19.9122L4.19461 20.1442C5.26891 21.534 6.5135 22.4748 6.95383 22.7809L7.00139 22.8139L7.05993 22.805C7.30823 22.7673 7.79232 22.6431 8.15809 22.2116L8.15894 22.2105C8.53424 21.7602 8.69492 21.068 8.66469 20.2108ZM15.5727 14.6952L15.6057 14.7637L15.6817 14.7748C17.7737 15.0787 20.2312 15.1378 22.2801 14.336L22.3958 14.2908L22.3782 14.17C21.8803 10.7604 20.4478 7.78105 17.4481 6.30566L17.3753 6.26985L17.3038 6.31302C16.0453 7.0724 15.2124 8.05748 14.8411 9.26119C14.1945 11.3487 15.0455 13.6009 15.5727 14.6952Z" fill="#020202" stroke="#F5FAFF" stroke-width="0.3"/>
</svg>
