<svg xmlns="http://www.w3.org/2000/svg" aria-hidden="true" style="position:absolute;width:0;height:0;overflow:hidden">
  <defs>
    <symbol id="burger-icon" viewBox="0 0 40 32">
      <path d="M3.158 0h33.684a3.158 3.158 0 0 1 0 6.316H3.158a3.158 3.158 0 0 1 0-6.316zM11.2 12.8h25.6a3.2 3.2 0 0 1 0 6.4H11.2a3.2 3.2 0 0 1 0-6.4zM3.158 25.263h33.684a3.158 3.158 0 0 1 0 6.316H3.158a3.158 3.158 0 0 1 0-6.316z"/>
    </symbol>
    <symbol id="close-icon" viewBox="0 0 32 32">
      <path d="M6.786 2.127 29.47 24.811a3.006 3.006 0 1 1-4.253 4.253L2.533 6.38a3.006 3.006 0 0 1 0-4.253 3.006 3.006 0 0 1 4.253 0z"/>
      <path d="M2.531 24.811 25.215 2.127a3.008 3.008 0 0 1 4.253 4.253L6.784 29.064a3.006 3.006 0 0 1-4.253 0 3.006 3.006 0 0 1 0-4.253z"/>
    </symbol>
    <symbol id="phone-icon" viewBox="0 0 29 32">
      <path fill="#0EB5A1" d="M21.89 13.024c-1.995 5.96-7.494 10.094-9.994 11.417L9.34 20.27.508 24.054l1.686 7.782c21.654-1.99 26.283-21.208 25.89-30.569L21.043.151 18.22 9.933l3.67 3.09z" style="fill:var(--color1, #0EB5A1)"/>
    </symbol>
<symbol id="eco" viewBox="0 0 34 42" >
<path d="M5.49077 34.6502L6.00542 34.7425C6.13198 34.7653 7.4063 34.9853 9.16011 34.9853C11.7845 34.9853 15.4819 34.4924 18.0091 32.108C22.2251 28.1302 21.3748 20.5964 21.3365 20.2776L21.2742 19.7585L20.7596 19.6662C20.4436 19.6095 12.9719 18.323 8.75591 22.3009C4.53989 26.2786 5.39022 33.8124 5.42848 34.1312L5.49077 34.6502ZM17.039 31.0797C14.357 33.6102 9.92317 33.6704 7.66725 33.5084L13.9986 27.5347L18.7047 28.7558C18.2892 29.6125 17.7465 30.4121 17.039 31.0797V31.0797ZM19.2382 27.4338L15.2126 26.3892L20.0079 21.8648C20.0263 23.2306 19.9178 25.3843 19.2382 27.4338V27.4338ZM18.9789 20.8922L11.0617 28.3621L10.0129 23.0733C12.6664 20.8354 16.7707 20.7468 18.9789 20.8922ZM8.82669 24.3595L9.84759 29.5076L6.75586 32.4247C6.74049 30.4221 7.00682 26.8815 8.82669 24.3595V24.3595Z" />
<path d="M28.4134 6.83241C28.4134 5.00764 27.7026 3.2919 26.4123 2.00157C25.1227 0.710853 23.4069 0 21.581 0C21.0122 0 20.4468 0.0704917 19.9008 0.209307L20.2493 1.57928C20.6815 1.4693 21.1296 1.4136 21.581 1.4136C23.0291 1.4136 24.3897 1.97725 25.4125 3.00089C26.4361 4.02443 26.9998 5.38516 26.9998 6.83241V12.2201H20.2145V6.83269C20.2145 3.06525 17.1495 0.000282565 13.3821 0.000282565C9.61466 0.000282565 6.54969 3.06525 6.54969 6.83269V12.2201H0V38.466C0 40.4147 1.58531 42 3.53401 42H29.827C31.7757 42 33.361 40.4147 33.361 38.466V12.2201H28.4134V6.83241ZM7.96329 6.83279C7.96329 3.84481 10.3941 1.41398 13.3821 1.41398C16.3701 1.41398 18.8009 3.84481 18.8009 6.83279V12.2202H16.1622V6.8325C16.1622 6.16679 16.2812 5.51842 16.516 4.90558L15.1958 4.39998C14.8991 5.17482 14.7486 5.99329 14.7486 6.8325V12.2202H7.96329V6.83279ZM25.3506 38.466C25.3506 39.6352 24.3994 40.5864 23.2302 40.5864H3.53401C2.36477 40.5864 1.4136 39.6352 1.4136 38.466V13.6337H25.3506V38.466ZM29.827 40.5864H27.2778L29.3558 36.9648L31.1617 40.112C30.7971 40.4084 30.3325 40.5864 29.827 40.5864ZM28.649 13.6337V17.6389H30.0626V13.6337H31.9474V38.466C31.9474 38.5208 31.9447 38.575 31.9405 38.6288L30.0626 35.3562V19.5237H28.649V35.3562L26.7595 38.6494C26.7626 38.5886 26.7642 38.5275 26.7642 38.466V13.6337H28.649Z" />
</symbol>
<symbol id="serve"  viewBox="0 0 44 44" >
<path d="M39.6182 29.8846L29.7087 35.7556L25.9341 33.3704H30.6797C31.4061 33.3704 32.1027 33.0818 32.6163 32.5682C33.13 32.0545 33.4185 31.3579 33.4185 30.6315C33.4185 29.9052 33.13 29.2085 32.6163 28.6949C32.1027 28.1813 31.4061 27.8927 30.6797 27.8927H22.528C21.5905 27.8872 20.6601 28.0561 19.7842 28.3907L13.4451 31.2689V30.6315C13.4451 30.4334 13.3664 30.2435 13.2264 30.1034C13.0863 29.9633 12.8963 29.8846 12.6982 29.8846H7.22058C7.02248 29.8846 6.83249 29.9633 6.69241 30.1034C6.55233 30.2435 6.47363 30.4334 6.47363 30.6315V43.0807C6.47363 43.2788 6.55233 43.4688 6.69241 43.6088C6.83249 43.7489 7.02248 43.8276 7.22058 43.8276H12.6982C12.8963 43.8276 13.0863 43.7489 13.2264 43.6088C13.3664 43.4688 13.4451 43.2788 13.4451 43.0807V42.3337H28.9269C29.9067 42.3354 30.862 42.0268 31.6557 41.4523L42.2425 33.8683C42.685 33.4868 42.9736 32.9572 43.0542 32.3785C43.1349 31.7997 43.002 31.2114 42.6806 30.7235C42.3592 30.2355 41.8711 29.8812 41.3075 29.7269C40.7439 29.5725 40.1434 29.6286 39.6182 29.8846V29.8846ZM11.9512 42.3337H7.96753V31.3785H11.9512V42.3337ZM41.376 32.6782L30.7843 40.2423C30.2436 40.6323 29.5935 40.8414 28.9269 40.8398H13.4451V32.9072L20.3569 29.785C21.05 29.52 21.786 29.3849 22.528 29.3866H30.6797C31.0099 29.3866 31.3265 29.5178 31.56 29.7513C31.7935 29.9847 31.9246 30.3014 31.9246 30.6315C31.9246 30.9617 31.7935 31.2784 31.56 31.5118C31.3265 31.7453 31.0099 31.8765 30.6797 31.8765H23.3546C23.1925 31.8763 23.0348 31.9288 22.9051 32.0262C22.7755 32.1235 22.6811 32.2604 22.6361 32.4161C22.5911 32.5719 22.598 32.738 22.6558 32.8895C22.7136 33.041 22.819 33.1696 22.9563 33.2558L29.2954 37.2395C29.413 37.3118 29.5483 37.35 29.6863 37.35C29.8243 37.35 29.9596 37.3118 30.0772 37.2395L40.385 31.1196C40.5869 31.0013 40.8266 30.9652 41.0543 31.0187C41.2821 31.0723 41.4805 31.2114 41.6085 31.4072C41.7365 31.6031 41.7843 31.8407 41.7419 32.0708C41.6996 32.3009 41.5703 32.5059 41.381 32.6433L41.376 32.6782Z" />
<path d="M43.074 23.9089H41.3311C41.2053 19.3315 39.4474 14.9498 36.3746 11.5548C33.3019 8.15969 29.1168 5.97483 24.5746 5.39452C24.9911 4.92878 25.2639 4.35245 25.3601 3.73507C25.4563 3.1177 25.3718 2.48568 25.1167 1.9153C24.8616 1.34493 24.4468 0.860573 23.9225 0.52071C23.3982 0.180846 22.7868 0 22.1619 0C21.5371 0 20.9256 0.180846 20.4013 0.52071C19.877 0.860573 19.4623 1.34493 19.2072 1.9153C18.9521 2.48568 18.8676 3.1177 18.9637 3.73507C19.0599 4.35245 19.3328 4.92878 19.7493 5.39452C15.2058 5.97276 11.0189 8.15685 7.94497 11.5522C4.87104 14.9476 3.11277 19.3304 2.98779 23.9089H0.746947C0.548845 23.9089 0.358856 23.9875 0.218776 24.1276C0.0786959 24.2677 0 24.4577 0 24.6558C0 24.8539 0.0786959 25.0439 0.218776 25.184C0.358856 25.3241 0.548845 25.4027 0.746947 25.4027H43.074C43.2721 25.4027 43.4621 25.3241 43.6021 25.184C43.7422 25.0439 43.8209 24.8539 43.8209 24.6558C43.8209 24.4577 43.7422 24.2677 43.6021 24.1276C43.4621 23.9875 43.2721 23.9089 43.074 23.9089ZM22.1594 1.50043C22.5041 1.50043 22.8411 1.60265 23.1277 1.79416C23.4143 1.98567 23.6377 2.25787 23.7696 2.57634C23.9016 2.89481 23.9361 3.24524 23.8688 3.58333C23.8016 3.92141 23.6356 4.23196 23.3918 4.47571C23.1481 4.71945 22.8375 4.88545 22.4995 4.9527C22.1614 5.01995 21.8109 4.98543 21.4925 4.85352C21.174 4.7216 20.9018 4.49821 20.7103 4.2116C20.5188 3.92498 20.4166 3.58802 20.4166 3.24331C20.4166 2.78107 20.6002 2.33776 20.927 2.01091C21.2539 1.68405 21.6972 1.50043 22.1594 1.50043V1.50043ZM22.1594 6.72906C26.7617 6.73101 31.1821 8.52622 34.4826 11.7337C37.783 14.9412 39.7038 19.3085 39.8372 23.9089H4.48168C4.6151 19.3085 6.53584 14.9412 9.8363 11.7337C13.1368 8.52622 17.5572 6.73101 22.1594 6.72906V6.72906Z" />
<path d="M18.145 10.2695C16.0931 10.8505 14.1925 11.8719 12.5756 13.2626C10.9588 14.6532 9.66463 16.3796 8.78324 18.3216C8.73368 18.4121 8.7034 18.5119 8.69431 18.6146C8.68522 18.7174 8.69752 18.821 8.73044 18.9187C8.76336 19.0165 8.81617 19.1064 8.88556 19.1828C8.95495 19.2591 9.0394 19.3203 9.1336 19.3624C9.2278 19.4045 9.32969 19.4266 9.43286 19.4274C9.53604 19.4281 9.63825 19.4075 9.73305 19.3668C9.82786 19.3261 9.9132 19.2662 9.9837 19.1908C10.0542 19.1155 10.1083 19.0264 10.1427 18.9291C10.9362 17.187 12.0996 15.6387 13.5521 14.3918C15.0046 13.1448 16.7112 12.2292 18.5533 11.7086C18.6478 11.6818 18.7361 11.6367 18.8131 11.5757C18.8902 11.5148 18.9545 11.4393 19.0023 11.3535C19.0502 11.2677 19.0807 11.1734 19.0921 11.0758C19.1035 10.9782 19.0955 10.8794 19.0687 10.7849C19.0419 10.6904 18.9967 10.6021 18.9358 10.5251C18.8749 10.448 18.7994 10.3838 18.7136 10.3359C18.6278 10.288 18.5335 10.2575 18.4359 10.2461C18.3383 10.2348 18.2395 10.2427 18.145 10.2695V10.2695Z" />
</symbol>
<symbol id="time" viewBox="0 0 46 45" >
<path d="M41.7944 9.75739H43.8416C44.3269 9.75739 44.7203 9.364 44.7203 8.87869C44.7203 8.39339 44.3269 8 43.8416 8H40.0046C39.5193 8 39.1259 8.39339 39.1259 8.87869V12.7157C39.1259 13.201 39.5193 13.5944 40.0046 13.5944C40.4899 13.5944 40.8833 13.201 40.8833 12.7157V11.6253C45.5355 19.6265 44.2989 30.0449 37.6213 36.7225C31.7324 42.6114 22.9342 44.408 15.2069 41.2993C14.7567 41.1183 14.2449 41.3362 14.0638 41.7865C13.8826 42.2368 14.1008 42.7486 14.551 42.9297C17.2808 44.0279 20.1333 44.5617 22.9604 44.5617C28.8138 44.5617 34.5566 42.2726 38.864 37.9652C42.7104 34.1188 45.0317 29.0151 45.4004 23.5943C45.7338 18.6915 44.4582 13.8308 41.7944 9.75739Z" />
<path d="M5.56507 30.9988C5.07977 30.9988 4.68637 31.3922 4.68637 31.8775V33.128C-0.102071 25.1014 1.09858 14.5666 7.83113 7.83401C13.7606 1.90458 22.6062 0.127334 30.366 3.30619C30.8152 3.49027 31.3283 3.27517 31.5123 2.82624C31.6962 2.37714 31.4813 1.86399 31.0323 1.68007C26.9785 0.0193421 22.5543 -0.420884 18.2375 0.40711C13.8139 1.25558 9.7857 3.39406 6.58848 6.59128C2.74209 10.4378 0.420752 15.5415 0.0520523 20.9622C-0.284576 25.9122 1.01941 30.8191 3.73572 34.9163H1.6475C1.1622 34.9163 0.768803 35.3097 0.768803 35.795C0.768803 36.2803 1.1622 36.6736 1.6475 36.6736H5.56498C6.05028 36.6736 6.44368 36.2803 6.44368 35.795V31.8775C6.44376 31.3922 6.05037 30.9988 5.56507 30.9988Z" />
<path d="M20.6378 18.9446C20.5149 19.0054 20.4212 19.1125 20.3772 19.2424C20.3333 19.3724 20.3428 19.5144 20.4036 19.6374L23.3075 25.5086C23.3683 25.6316 23.4754 25.7253 23.6053 25.7693C23.7352 25.8132 23.8773 25.8037 24.0002 25.7429C24.1232 25.6821 24.2169 25.575 24.2608 25.445C24.3048 25.3151 24.2953 25.1731 24.2345 25.0501L21.3306 19.1788C21.2698 19.0559 21.1627 18.9622 21.0327 18.9182C20.9028 18.8743 20.7608 18.8838 20.6378 18.9446Z" />
<path d="M26.7062 23.8276L23.8023 17.9563C23.7415 17.8334 23.6343 17.7396 23.5044 17.6957C23.3745 17.6518 23.2325 17.6612 23.1095 17.722C22.9866 17.7828 22.8928 17.89 22.8489 18.0199C22.805 18.1498 22.8144 18.2919 22.8753 18.4148L25.7791 24.2861C25.8399 24.409 25.9471 24.5028 26.077 24.5467C26.2069 24.5907 26.349 24.5812 26.4719 24.5204C26.5948 24.4596 26.6886 24.3524 26.7325 24.2225C26.7765 24.0926 26.767 23.9505 26.7062 23.8276V23.8276Z" />
<path d="M34.511 11.6139C34.4996 11.5492 34.4699 11.4892 34.4255 11.4408C34.4066 11.4135 34.385 11.3881 34.361 11.365C34.3344 11.343 34.3055 11.3237 34.2749 11.3076C34.2551 11.292 34.234 11.278 34.2119 11.2657L34.1703 11.2516C33.8608 11.1778 27.2575 9.39003 21.5906 11.0198C21.2908 9.88595 20.9186 8.7725 20.4765 7.68627C20.4765 7.68627 20.4765 7.68627 20.4673 7.66773C20.4581 7.64918 20.4566 7.64609 20.4505 7.63373C20.4392 7.60475 20.4254 7.57683 20.4092 7.5503V7.5503C20.378 7.51438 20.3418 7.48308 20.3017 7.45733L20.2925 7.43879C20.2527 7.4143 20.2098 7.39544 20.1648 7.38273V7.38273C20.1234 7.37274 20.081 7.3679 20.0384 7.36831L20.0199 7.37748C19.9769 7.38035 19.9344 7.38845 19.8934 7.4016L19.7667 7.46426C18.2927 8.33959 16.898 9.3421 15.5986 10.4603C13.5652 12.1968 10.9029 14.9635 9.7831 18.2827C7.85741 23.9773 12.6703 28.0083 12.9499 28.2315L12.9606 28.2531C12.9876 28.2725 13.0165 28.2891 13.0467 28.3029L13.0944 28.3216L13.1776 28.342L13.23 28.3468L13.2547 28.3346C14.7332 28.2657 16.182 27.8947 17.5116 27.2445C18.4976 26.7652 19.3841 26.1036 20.1241 25.2947L21.3927 27.8596C21.8773 28.8805 22.6731 29.7217 23.6656 30.2622L24.6778 30.7924C25.4671 31.2328 26.1004 31.9073 26.4902 32.7228L28.6528 37.0954C28.7136 37.2183 28.8208 37.3121 28.9507 37.356C29.0806 37.3999 29.2227 37.3904 29.3456 37.3296C29.4686 37.2688 29.5623 37.1617 29.6062 37.0318C29.6502 36.9019 29.6407 36.7598 29.5799 36.6369L27.4173 32.2643C26.9326 31.2433 26.1369 30.4022 25.1443 29.8616L24.1383 29.3439C23.3448 28.9012 22.7091 28.222 22.3197 27.4011L18.858 20.4019C18.7972 20.2789 18.69 20.1852 18.5601 20.1413C18.4302 20.0973 18.2881 20.1068 18.1652 20.1676C18.0423 20.2284 17.9485 20.3355 17.9046 20.4655C17.8606 20.5954 17.8701 20.7374 17.9309 20.8604L19.6243 24.2843C17.8975 26.4229 15.2847 27.0422 14.0073 27.2201L20.0264 9.43576C20.7899 11.643 21.2781 13.936 21.48 16.2628C21.49 16.3996 21.554 16.5269 21.6578 16.6165C21.7617 16.7062 21.8969 16.7509 22.0337 16.7408C22.1705 16.7308 22.2977 16.6668 22.3874 16.563C22.477 16.4591 22.5218 16.3239 22.5117 16.1871C22.4043 14.7836 22.1861 13.3907 21.8591 12.0215C26.3251 10.7242 31.5797 11.7137 33.3017 12.1082C32.6558 13.5007 30.7895 17.2313 27.8929 20.0063L26.2743 16.7338C26.2135 16.6109 26.1064 16.5171 25.9765 16.4732C25.8465 16.4293 25.7045 16.4387 25.5816 16.4995C25.4586 16.5603 25.3649 16.6675 25.3209 16.7974C25.277 16.9273 25.2865 17.0694 25.3473 17.1923L28.809 24.1915C29.225 24.9993 29.3789 25.9166 29.2494 26.816L29.0503 27.9298C28.8778 29.0467 29.0633 30.1895 29.5804 31.1944L31.743 35.567C31.8038 35.6899 31.9109 35.7837 32.0409 35.8276C32.1708 35.8716 32.3128 35.8621 32.4358 35.8013C32.5587 35.7405 32.6525 35.6333 32.6964 35.5034C32.7403 35.3735 32.7308 35.2314 32.67 35.1085L30.5074 30.7359C30.0961 29.9311 29.9444 29.0185 30.0732 28.1239L30.2723 27.01C30.4456 25.8885 30.2578 24.7408 29.7361 23.733L28.3712 20.9735C32.286 17.3642 34.4007 12.1684 34.488 11.9483L34.5036 11.9099C34.5072 11.8849 34.5088 11.8596 34.5085 11.8343C34.5143 11.8002 34.5165 11.7656 34.5152 11.7311C34.5184 11.692 34.517 11.6526 34.511 11.6139V11.6139ZM19.0411 9.10771L15.1366 20.654L12.4818 15.2864C14.5141 12.3967 17.4175 10.203 19.0411 9.10771ZM13.0282 26.8967C11.8537 25.7353 9.36479 22.6625 10.7438 18.5844C11.0211 17.7815 11.3821 17.01 11.8207 16.2826L14.6696 22.0426L13.0282 26.8967Z" />
</symbol>
<symbol id="night" viewBox="0 0 41 41" >
<path d="M39.2882 20.6989C39.3344 20.5651 39.3376 20.4202 39.2972 20.2845C39.2569 20.1488 39.1751 20.0292 39.0633 19.9423C38.9515 19.8555 38.8153 19.8058 38.6739 19.8003C38.5324 19.7948 38.3928 19.8337 38.2746 19.9115C37.0827 20.6964 35.7626 21.0621 34.1199 21.0621C29.7277 21.0621 26.1544 17.4023 26.1544 12.9037C26.1544 9.51223 28.3442 6.31223 31.4794 5.12198C31.6109 5.07217 31.7237 4.98269 31.8021 4.86595C31.8805 4.7492 31.9206 4.61096 31.917 4.47038C31.9133 4.3298 31.866 4.19383 31.7817 4.08132C31.6973 3.96881 31.58 3.88532 31.4461 3.84242C30.2026 3.44338 28.7709 3.38957 27.5345 3.38957C20.5791 3.38957 14.9204 9.16768 14.9204 16.2699C14.9195 17.339 15.0491 18.4043 15.3064 19.442C14.475 19.1377 13.5967 18.9818 12.7114 18.9816C8.54798 18.9816 5.16112 22.3268 5.16112 26.4386C5.16149 27.002 5.22752 27.5634 5.35789 28.1115C4.01616 28.3288 2.77849 28.9677 1.82426 29.9356C0.658039 31.1076 0.00426581 32.6943 0.00635264 34.3476C0.00635264 37.8365 2.87969 40.6748 6.41145 40.6748H27.6021C31.4498 40.6748 34.5799 37.583 34.5799 33.7827C34.5781 32.7366 34.3368 31.7048 33.8745 30.7664C33.4121 29.828 32.7411 29.0079 31.9127 28.369C35.3405 27.0871 38.0424 24.3072 39.2882 20.6989ZM33.2241 33.7827C33.2241 36.8354 30.7021 39.319 27.6021 39.319H6.41145C3.62726 39.319 1.36218 37.0888 1.36218 34.3476C1.36094 33.0512 1.87395 31.8072 2.78868 30.8885C3.70825 29.9572 4.95269 29.4182 6.26104 29.3844C6.36809 29.3812 6.47287 29.3527 6.56679 29.3013C6.66071 29.2498 6.7411 29.1768 6.80136 29.0882C6.86163 28.9997 6.90005 28.8981 6.9135 28.7919C6.92694 28.6856 6.91501 28.5777 6.8787 28.4769C6.64085 27.8236 6.51836 27.1339 6.51669 26.4386C6.51669 23.0745 9.29563 20.3374 12.7111 20.3374C15.2854 20.3374 17.6175 21.939 18.5144 24.322C18.5471 24.4089 18.5973 24.4882 18.6619 24.5549C18.7265 24.6216 18.8041 24.6743 18.8899 24.7098C18.9757 24.7453 19.0679 24.7627 19.1607 24.7611C19.2536 24.7595 19.3451 24.7388 19.4296 24.7004C20.0172 24.4312 20.656 24.2919 21.3023 24.2919C23.4278 24.2919 25.2732 25.7785 25.6905 27.8267C25.7263 28.0023 25.8301 28.1565 25.9793 28.2558C26.1285 28.355 26.3108 28.3912 26.4866 28.3564C26.854 28.2834 27.2276 28.2465 27.6022 28.2462C30.7021 28.2464 33.2241 30.73 33.2241 33.7827ZM30.3399 27.4442C29.2402 26.9804 28.0406 26.8038 26.8538 26.9308C26.088 24.5819 23.8487 22.9364 21.3022 22.9364C20.6949 22.9358 20.0913 23.0304 19.5132 23.2167C18.9386 22.0424 18.0673 21.0385 16.9855 20.3044C16.5138 19.0117 16.2738 17.646 16.2763 16.2699C16.2763 9.91525 21.3267 4.7454 27.5345 4.7454C28.0567 4.7454 28.6149 4.75523 29.1693 4.79946C26.5246 6.5661 24.7986 9.66027 24.7986 12.9037C24.7986 18.1499 28.9801 22.4179 34.1199 22.4179C35.2942 22.4179 36.3326 22.2546 37.2879 21.9132C35.8293 24.6676 33.3343 26.6753 30.3399 27.444V27.4442Z" />
<path d="M39.2882 20.6989C39.3344 20.5651 39.3376 20.4202 39.2972 20.2845C39.2569 20.1488 39.1751 20.0292 39.0633 19.9423C38.9515 19.8555 38.8153 19.8058 38.6739 19.8003C38.5324 19.7948 38.3928 19.8337 38.2746 19.9115C37.0827 20.6964 35.7626 21.0621 34.1199 21.0621C29.7277 21.0621 26.1544 17.4023 26.1544 12.9037C26.1544 9.51223 28.3442 6.31223 31.4794 5.12198C31.6109 5.07217 31.7237 4.98269 31.8021 4.86595C31.8805 4.7492 31.9206 4.61096 31.917 4.47038C31.9133 4.3298 31.866 4.19383 31.7817 4.08132C31.6973 3.96881 31.58 3.88532 31.4461 3.84242C30.2026 3.44338 28.7709 3.38957 27.5345 3.38957C20.5791 3.38957 14.9204 9.16768 14.9204 16.2699C14.9195 17.339 15.0491 18.4043 15.3064 19.442C14.475 19.1377 13.5967 18.9818 12.7114 18.9816C8.54798 18.9816 5.16112 22.3268 5.16112 26.4386C5.16149 27.002 5.22752 27.5634 5.35789 28.1115C4.01616 28.3288 2.77849 28.9677 1.82426 29.9356C0.658039 31.1076 0.00426581 32.6943 0.00635264 34.3476C0.00635264 37.8365 2.87969 40.6748 6.41145 40.6748H27.6021C31.4498 40.6748 34.5799 37.583 34.5799 33.7827C34.5781 32.7366 34.3368 31.7048 33.8745 30.7664C33.4121 29.828 32.7411 29.0079 31.9127 28.369C35.3405 27.0871 38.0424 24.3072 39.2882 20.6989ZM33.2241 33.7827C33.2241 36.8354 30.7021 39.319 27.6021 39.319H6.41145C3.62726 39.319 1.36218 37.0888 1.36218 34.3476C1.36094 33.0512 1.87395 31.8072 2.78868 30.8885C3.70825 29.9572 4.95269 29.4182 6.26104 29.3844C6.36809 29.3812 6.47287 29.3527 6.56679 29.3013C6.66071 29.2498 6.7411 29.1768 6.80136 29.0882C6.86163 28.9997 6.90005 28.8981 6.9135 28.7919C6.92694 28.6856 6.91501 28.5777 6.8787 28.4769C6.64085 27.8236 6.51836 27.1339 6.51669 26.4386C6.51669 23.0745 9.29563 20.3374 12.7111 20.3374C15.2854 20.3374 17.6175 21.939 18.5144 24.322C18.5471 24.4089 18.5973 24.4882 18.6619 24.5549C18.7265 24.6216 18.8041 24.6743 18.8899 24.7098C18.9757 24.7453 19.0679 24.7627 19.1607 24.7611C19.2536 24.7595 19.3451 24.7388 19.4296 24.7004C20.0172 24.4312 20.656 24.2919 21.3023 24.2919C23.4278 24.2919 25.2732 25.7785 25.6905 27.8267C25.7263 28.0023 25.8301 28.1565 25.9793 28.2558C26.1285 28.355 26.3108 28.3912 26.4866 28.3564C26.854 28.2834 27.2276 28.2465 27.6022 28.2462C30.7021 28.2464 33.2241 30.73 33.2241 33.7827ZM30.3399 27.4442C29.2402 26.9804 28.0406 26.8038 26.8538 26.9308C26.088 24.5819 23.8487 22.9364 21.3022 22.9364C20.6949 22.9358 20.0913 23.0304 19.5132 23.2167C18.9386 22.0424 18.0673 21.0385 16.9855 20.3044C16.5138 19.0117 16.2738 17.646 16.2763 16.2699C16.2763 9.91525 21.3267 4.7454 27.5345 4.7454C28.0567 4.7454 28.6149 4.75523 29.1693 4.79946C26.5246 6.5661 24.7986 9.66027 24.7986 12.9037C24.7986 18.1499 28.9801 22.4179 34.1199 22.4179C35.2942 22.4179 36.3326 22.2546 37.2879 21.9132C35.8293 24.6676 33.3343 26.6753 30.3399 27.444V27.4442Z"  fill-opacity="0.2"/>
<path d="M39.2882 20.6989C39.3344 20.5651 39.3376 20.4202 39.2972 20.2845C39.2569 20.1488 39.1751 20.0292 39.0633 19.9423C38.9515 19.8555 38.8153 19.8058 38.6739 19.8003C38.5324 19.7948 38.3928 19.8337 38.2746 19.9115C37.0827 20.6964 35.7626 21.0621 34.1199 21.0621C29.7277 21.0621 26.1544 17.4023 26.1544 12.9037C26.1544 9.51223 28.3442 6.31223 31.4794 5.12198C31.6109 5.07217 31.7237 4.98269 31.8021 4.86595C31.8805 4.7492 31.9206 4.61096 31.917 4.47038C31.9133 4.3298 31.866 4.19383 31.7817 4.08132C31.6973 3.96881 31.58 3.88532 31.4461 3.84242C30.2026 3.44338 28.7709 3.38957 27.5345 3.38957C20.5791 3.38957 14.9204 9.16768 14.9204 16.2699C14.9195 17.339 15.0491 18.4043 15.3064 19.442C14.475 19.1377 13.5967 18.9818 12.7114 18.9816C8.54798 18.9816 5.16112 22.3268 5.16112 26.4386C5.16149 27.002 5.22752 27.5634 5.35789 28.1115C4.01616 28.3288 2.77849 28.9677 1.82426 29.9356C0.658039 31.1076 0.00426581 32.6943 0.00635264 34.3476C0.00635264 37.8365 2.87969 40.6748 6.41145 40.6748H27.6021C31.4498 40.6748 34.5799 37.583 34.5799 33.7827C34.5781 32.7366 34.3368 31.7048 33.8745 30.7664C33.4121 29.828 32.7411 29.0079 31.9127 28.369C35.3405 27.0871 38.0424 24.3072 39.2882 20.6989ZM33.2241 33.7827C33.2241 36.8354 30.7021 39.319 27.6021 39.319H6.41145C3.62726 39.319 1.36218 37.0888 1.36218 34.3476C1.36094 33.0512 1.87395 31.8072 2.78868 30.8885C3.70825 29.9572 4.95269 29.4182 6.26104 29.3844C6.36809 29.3812 6.47287 29.3527 6.56679 29.3013C6.66071 29.2498 6.7411 29.1768 6.80136 29.0882C6.86163 28.9997 6.90005 28.8981 6.9135 28.7919C6.92694 28.6856 6.91501 28.5777 6.8787 28.4769C6.64085 27.8236 6.51836 27.1339 6.51669 26.4386C6.51669 23.0745 9.29563 20.3374 12.7111 20.3374C15.2854 20.3374 17.6175 21.939 18.5144 24.322C18.5471 24.4089 18.5973 24.4882 18.6619 24.5549C18.7265 24.6216 18.8041 24.6743 18.8899 24.7098C18.9757 24.7453 19.0679 24.7627 19.1607 24.7611C19.2536 24.7595 19.3451 24.7388 19.4296 24.7004C20.0172 24.4312 20.656 24.2919 21.3023 24.2919C23.4278 24.2919 25.2732 25.7785 25.6905 27.8267C25.7263 28.0023 25.8301 28.1565 25.9793 28.2558C26.1285 28.355 26.3108 28.3912 26.4866 28.3564C26.854 28.2834 27.2276 28.2465 27.6022 28.2462C30.7021 28.2464 33.2241 30.73 33.2241 33.7827ZM30.3399 27.4442C29.2402 26.9804 28.0406 26.8038 26.8538 26.9308C26.088 24.5819 23.8487 22.9364 21.3022 22.9364C20.6949 22.9358 20.0913 23.0304 19.5132 23.2167C18.9386 22.0424 18.0673 21.0385 16.9855 20.3044C16.5138 19.0117 16.2738 17.646 16.2763 16.2699C16.2763 9.91525 21.3267 4.7454 27.5345 4.7454C28.0567 4.7454 28.6149 4.75523 29.1693 4.79946C26.5246 6.5661 24.7986 9.66027 24.7986 12.9037C24.7986 18.1499 28.9801 22.4179 34.1199 22.4179C35.2942 22.4179 36.3326 22.2546 37.2879 21.9132C35.8293 24.6676 33.3343 26.6753 30.3399 27.444V27.4442Z"  fill-opacity="0.2"/>
<path d="M35.258 9.49078C35.0782 9.49078 34.9058 9.56221 34.7787 9.68934C34.6515 9.81647 34.5801 9.9889 34.5801 10.1687V11.2618L33.4387 10.8814C33.354 10.8522 33.2643 10.8401 33.1749 10.8458C33.0855 10.8515 32.9981 10.8748 32.9178 10.9145C32.8375 10.9542 32.7658 11.0094 32.7069 11.0769C32.6481 11.1444 32.6032 11.2229 32.5748 11.3079C32.5465 11.3929 32.5353 11.4827 32.5419 11.572C32.5484 11.6614 32.5726 11.7485 32.6131 11.8285C32.6535 11.9084 32.7094 11.9795 32.7775 12.0377C32.8457 12.0959 32.9246 12.14 33.0099 12.1675L34.2017 12.5648L33.3382 13.86C33.2882 13.9341 33.2534 14.0173 33.2357 14.1048C33.218 14.1924 33.2178 14.2826 33.2351 14.3702C33.2523 14.4579 33.2868 14.5412 33.3364 14.6155C33.386 14.6898 33.4498 14.7536 33.5241 14.8031C33.5984 14.8527 33.6818 14.8871 33.7695 14.9043C33.8571 14.9215 33.9473 14.9213 34.0349 14.9035C34.1224 14.8858 34.2056 14.8509 34.2796 14.8009C34.3536 14.7509 34.417 14.6868 34.4662 14.6122L35.258 13.4245L36.0498 14.6123C36.15 14.7608 36.3049 14.8636 36.4807 14.8983C36.6565 14.9329 36.8388 14.8966 36.9879 14.7972C37.137 14.6978 37.2406 14.5434 37.2762 14.3678C37.3118 14.1923 37.2765 14.0097 37.1779 13.8601L36.3144 12.5649L37.5061 12.1676C37.675 12.1095 37.8142 11.987 37.8933 11.8268C37.9724 11.6666 37.985 11.4817 37.9285 11.3122C37.8721 11.1428 37.7509 11.0024 37.5916 10.9218C37.4322 10.8411 37.2474 10.8266 37.0774 10.8814L35.9359 11.2618V10.1687C35.9359 9.9889 35.8645 9.81647 35.7374 9.68934C35.6102 9.56221 35.4378 9.49078 35.258 9.49078Z" />
<path d="M2.04006 17.3631L0.898623 16.9826C0.813918 16.9534 0.724273 16.9413 0.634868 16.947C0.545464 16.9527 0.458073 16.9761 0.377748 17.0157C0.297423 17.0554 0.225757 17.1106 0.166891 17.1781C0.108026 17.2456 0.0631295 17.3242 0.0347968 17.4092C0.00646407 17.4941 -0.00474292 17.5839 0.00182366 17.6733C0.00839024 17.7626 0.0326001 17.8498 0.073054 17.9297C0.113508 18.0096 0.169403 18.0807 0.237509 18.1389C0.305615 18.1971 0.384581 18.2413 0.469842 18.2688L1.66161 18.666L0.798122 19.9612C0.74817 20.0353 0.713348 20.1185 0.695656 20.2061C0.677964 20.2936 0.677751 20.3838 0.69503 20.4715C0.71231 20.5591 0.74674 20.6425 0.796342 20.7168C0.845944 20.791 0.90974 20.8548 0.984063 20.9044C1.05839 20.9539 1.14177 20.9883 1.22942 21.0055C1.31707 21.0227 1.40727 21.0225 1.49482 21.0047C1.58236 20.987 1.66554 20.9521 1.73957 20.9021C1.8136 20.8521 1.87701 20.788 1.92617 20.7134L2.71797 19.5258L3.50978 20.7135C3.55893 20.7881 3.62235 20.8522 3.69638 20.9022C3.7704 20.9522 3.85358 20.9871 3.94113 21.0048C4.02868 21.0226 4.11887 21.0228 4.20652 21.0056C4.29418 20.9884 4.37756 20.954 4.45188 20.9044C4.52621 20.8549 4.59 20.7911 4.6396 20.7168C4.68921 20.6426 4.72364 20.5592 4.74091 20.4715C4.75819 20.3839 4.75798 20.2937 4.74029 20.2062C4.7226 20.1186 4.68777 20.0354 4.63782 19.9613L3.77433 18.6661L4.9661 18.2688C5.13501 18.2107 5.27413 18.0882 5.35323 17.928C5.43233 17.7679 5.44501 17.5829 5.38851 17.4135C5.33201 17.244 5.21091 17.1037 5.05152 17.023C4.89213 16.9423 4.70734 16.9278 4.53732 16.9827L3.39589 17.3631V16.2699C3.39589 16.0901 3.32446 15.9177 3.19733 15.7906C3.0702 15.6634 2.89777 15.592 2.71797 15.592C2.53818 15.592 2.36575 15.6634 2.23862 15.7906C2.11148 15.9177 2.04006 16.0901 2.04006 16.2699V17.3631Z" />
<path d="M5.05351 6.66524C5.2031 6.76498 5.38619 6.80121 5.56249 6.76596C5.73879 6.73071 5.89387 6.62687 5.99361 6.47729L6.78541 5.28958L7.57721 6.47729C7.6774 6.62582 7.83232 6.72866 8.0081 6.76332C8.18389 6.79797 8.36624 6.76163 8.51531 6.66224C8.66438 6.56284 8.76804 6.40848 8.80363 6.23288C8.83923 6.05729 8.80386 5.87474 8.70526 5.72514L7.84177 4.4299L9.03354 4.03265C9.20245 3.97449 9.34157 3.85201 9.42067 3.69183C9.49977 3.53166 9.51245 3.34674 9.45595 3.17727C9.39945 3.0078 9.27834 2.86748 9.11896 2.78681C8.95957 2.70614 8.77478 2.69164 8.60476 2.74647L7.46333 3.12687V2.03373C7.46333 1.85394 7.3919 1.68151 7.26477 1.55438C7.13764 1.42724 6.96521 1.35582 6.78541 1.35582C6.60562 1.35582 6.43319 1.42724 6.30606 1.55438C6.17892 1.68151 6.1075 1.85394 6.1075 2.03373V3.12687L4.96606 2.74639C4.79605 2.69156 4.61126 2.70605 4.45187 2.78672C4.29248 2.86739 4.17137 3.00771 4.11488 3.17718C4.05838 3.34665 4.07106 3.53157 4.15015 3.69175C4.22925 3.85192 4.36838 3.9744 4.53728 4.03256L5.72905 4.42982L4.86556 5.72514C4.76582 5.87473 4.72959 6.05781 4.76484 6.23411C4.80009 6.41042 4.90393 6.5655 5.05351 6.66524Z" />
<path d="M38.6472 4.06748C39.0216 4.06748 39.3251 3.76397 39.3251 3.38957C39.3251 3.01517 39.0216 2.71165 38.6472 2.71165C38.2728 2.71165 37.9692 3.01517 37.9692 3.38957C37.9692 3.76397 38.2728 4.06748 38.6472 4.06748Z" />
<path d="M10.8527 14.2362C11.2271 14.2362 11.5306 13.9327 11.5306 13.5583C11.5306 13.1839 11.2271 12.8804 10.8527 12.8804C10.4783 12.8804 10.1748 13.1839 10.1748 13.5583C10.1748 13.9327 10.4783 14.2362 10.8527 14.2362Z" />
<path d="M21.0217 1.35583C21.3961 1.35583 21.6996 1.05231 21.6996 0.677913C21.6996 0.303512 21.3961 0 21.0217 0C20.6473 0 20.3438 0.303512 20.3438 0.677913C20.3438 1.05231 20.6473 1.35583 21.0217 1.35583Z" />
<path d="M40.0031 27.7945C40.3775 27.7945 40.681 27.4909 40.681 27.1165C40.681 26.7421 40.3775 26.4386 40.0031 26.4386C39.6287 26.4386 39.3252 26.7421 39.3252 27.1165C39.3252 27.4909 39.6287 27.7945 40.0031 27.7945Z" />
</symbol>
<symbol id="truck" viewBox="0 0 66 46" >
<path d="M62.3508 22.4548L62.3508 22.4548L65.6887 27.5619C65.7888 27.7151 65.8425 27.8955 65.8425 28.0798V39.7302C65.8425 40.2536 65.4194 40.6771 64.8962 40.6771H61.369H61.2896L61.2716 40.7545C60.6865 43.2715 58.429 45.1548 55.7373 45.1548C53.0456 45.1548 50.7886 43.2715 50.2029 40.7545L50.1849 40.6771H50.1055H29.9676H29.8882L29.8702 40.7545C29.2851 43.2715 27.0288 45.1548 24.3358 45.1548C21.6435 45.1548 19.3866 43.2715 18.8015 40.7545L18.7835 40.6771H18.7041H9.42061C8.89783 40.6771 8.47368 40.2535 8.47368 39.7302V38.6971C8.47368 36.5955 9.74353 34.7892 11.5542 33.9905L11.6139 33.9642V33.899V29.2633V29.1633H11.5139H1.04693C0.523594 29.1633 0.1 28.7397 0.1 28.2163C0.1 27.693 0.523594 27.2694 1.04693 27.2694H11.5139H11.6139V27.1694V25.0761V24.9761H11.5139H7.32675C6.80397 24.9761 6.38041 24.5531 6.38041 24.0298C6.38041 23.5064 6.80404 23.0828 7.32675 23.0828H11.5139H11.6139V22.9829V20.8896V20.7896H11.5139H1.04693C0.523594 20.7896 0.1 20.366 0.1 19.8426C0.1 19.3193 0.523594 18.8957 1.04693 18.8957H9.69013H10.02L9.74566 18.7125C7.01463 16.8891 5.21129 13.7818 5.21129 10.2597C5.21129 4.65802 9.76872 0.1 15.371 0.1C20.3183 0.1 24.4465 3.65787 25.3444 8.34757L25.36 8.42876H25.4427H41.6025C44.5802 8.42876 47.0019 10.8504 47.0019 13.8282V18.7957V18.8957H47.1019H55.7343C58.4231 18.8957 60.8955 20.2266 62.3508 22.4548ZM13.6072 29.1633H13.5072V29.2633V33.451V33.551H13.6072C13.6148 33.551 13.6215 33.5503 13.6251 33.5498H45.0086H45.1086V33.4498V13.8282C45.1086 11.8953 43.536 10.322 41.6031 10.322H25.6229H25.5245L25.523 10.4205C25.4684 13.8756 23.6851 16.9171 20.9964 18.7125L20.7221 18.8957H21.0519H27.2143C27.7371 18.8957 28.1612 19.3193 28.1612 19.8426C28.1612 20.3659 27.7371 20.7896 27.2143 20.7896H13.6072H13.5072V20.8896V22.9829V23.0828H13.6072H20.9345C21.4572 23.0828 21.8808 23.5064 21.8808 24.0298C21.8808 24.5531 21.4573 24.9761 20.9345 24.9761H13.6072H13.5072V25.0761V27.1694V27.2694H13.6072H15.7004C16.2238 27.2694 16.6474 27.693 16.6474 28.2163C16.6474 28.7397 16.2238 29.1633 15.7004 29.1633H13.6072ZM45.0086 38.7833H45.1086V38.6833V35.5431V35.4431H45.0086H28.5751H28.3461L28.5017 35.611C29.277 36.4475 29.8019 37.514 29.9638 38.6968L29.9756 38.7833H30.0628H45.0086ZM20.17 35.611L20.3255 35.4431H20.0966H13.6203C11.8313 35.4431 10.3744 36.8957 10.367 38.6829L10.3665 38.7833H10.4669H18.6094H18.6967L18.7085 38.6968C18.8698 37.514 19.3952 36.4476 20.17 35.611ZM63.8492 38.7833H63.9492V38.6833V28.3912V28.3614L63.9329 28.3365L60.7664 23.49L60.6827 23.5446L60.7664 23.4899C59.6612 21.7986 57.7793 20.7896 55.7343 20.7896H47.1019H47.0019V20.8896V38.6833V38.7833H47.1019H50.0103H50.0975L50.1094 38.6968C50.4884 35.9263 52.8648 33.7822 55.7373 33.7822C58.6098 33.7822 60.9867 35.9263 61.3652 38.6968L61.377 38.7833H61.4643H63.8492ZM15.371 1.99327C10.813 1.99327 7.10456 5.70171 7.10456 10.2597C7.10456 14.8177 10.813 18.5262 15.371 18.5262C19.9296 18.5262 23.6375 14.8177 23.6375 10.2597C23.6375 5.70172 19.9296 1.99327 15.371 1.99327ZM20.5428 39.4685C20.5428 41.5601 22.2448 43.2615 24.3358 43.2615C26.4274 43.2615 28.1289 41.5601 28.1289 39.4685C28.1289 37.3775 26.4274 35.6755 24.3358 35.6755C22.2448 35.6755 20.5428 37.3775 20.5428 39.4685ZM51.9443 39.4685C51.9443 41.5601 53.6463 43.2615 55.7373 43.2615C57.8289 43.2615 59.5303 41.5601 59.5303 39.4685C59.5303 37.3775 57.8289 35.6755 55.7373 35.6755C53.6463 35.6755 51.9443 37.3775 51.9443 39.4685Z" stroke="#E5E5E5" stroke-width="0.2"/>
<path d="M14.7348 9.97727L14.754 9.95094V9.91836V5.68031C14.754 5.157 15.1776 4.73397 15.7004 4.73397C16.2238 4.73397 16.6473 5.15704 16.6473 5.68031V10.2597C16.6473 10.4607 16.5834 10.6557 16.4658 10.8172L14.1282 14.0226L14.1282 14.0227C13.9429 14.2773 13.6549 14.4122 13.3627 14.4122C13.1694 14.4122 12.9746 14.3532 12.8054 14.2296L12.8053 14.2295C12.3828 13.9219 12.2902 13.3304 12.5984 12.9079L12.5984 12.9078L14.7348 9.97727Z"  stroke="#E5E5E5" stroke-width="0.2"/>
<path d="M61.919 28.687L61.9191 28.6871C62.2259 29.2222 62.2254 29.8632 61.9139 30.3995C61.6024 30.936 61.0477 31.2565 60.427 31.2565H53.3824C52.859 31.2565 52.4354 30.8329 52.4354 30.3096V22.9828C52.4354 22.4595 52.859 22.0359 53.3824 22.0359H55.3846C57.0713 22.0359 58.6391 22.9462 59.4747 24.4088L61.919 28.687ZM54.3293 29.2632V29.3632H54.4293H59.9521H60.1244L60.0389 29.2136L57.8307 25.3487C57.3307 24.473 56.3937 23.9298 55.3846 23.9298H54.4293H54.3293V24.0298V29.2632Z"  stroke="#E5E5E5" stroke-width="0.2"/>
</symbol>
<symbol id="clock" viewBox="0 0 45 45" >
<path d="M22.5 44.75C10.2311 44.75 0.25 34.7689 0.25 22.5C0.25 10.2311 10.2311 0.25 22.5 0.25C34.7689 0.25 44.75 10.2311 44.75 22.5C44.75 34.7689 34.7689 44.75 22.5 44.75ZM22.5 2.5625C11.5057 2.5625 2.5625 11.5057 2.5625 22.5C2.5625 33.4943 11.5057 42.4375 22.5 42.4375C33.4943 42.4375 42.4375 33.4943 42.4375 22.5C42.4375 11.5057 33.4943 2.5625 22.5 2.5625Z"  stroke="#E5E5E5" stroke-width="0.5"/>
<path d="M31.5272 34.0987L31.5266 34.0982L21.6829 24.2544C21.4653 24.0369 21.3438 23.7423 21.3438 23.4376V10.3124C21.3438 9.6742 21.8618 9.15613 22.5 9.15613C23.1382 9.15613 23.6562 9.6742 23.6562 10.3124V22.8543V22.9579L23.7295 23.0311L33.1609 32.4625C33.6126 32.9142 33.6126 33.6465 33.1609 34.0982L33.1603 34.0987C32.9355 34.325 32.6404 34.4376 32.3438 34.4376C32.0471 34.4376 31.752 34.325 31.5272 34.0987Z"  stroke="#E5E5E5" stroke-width="0.5"/>
</symbol>
<symbol id="icon-hero_table" viewBox="0 0 67 32">
<path d="M63.729 2.322l-47.981-0.242c-0.509-0.003-0.924 0.505-0.927 1.134s0.407 1.14 0.915 1.143l47.797 0.242-0.022 4.375-59.2-0.299 0.022-4.375 7.719 0.039c0.509 0.003 0.924-0.505 0.927-1.134s-0.407-1.14-0.915-1.143l-7.903-0.040c-0.914-0.005-1.663 0.911-1.668 2.040l-0.024 4.83c-0.006 1.13 0.733 2.053 1.648 2.057l1.299 0.007-0.086 17.094c-0.006 1.13 0.733 2.053 1.648 2.057l3.162 0.016c0.914 0.005 1.663-0.911 1.668-2.041 0 0 0.043-8.504 0.057-11.198s0.012-2.276 0.012-2.276c0.011-2.276 0.018-3.619 0.018-3.619l43.618 0.22c0 0-0.010 2.017-0.018 3.619s-0.008 1.603-0.012 2.276-0.058 11.426-0.058 11.426c-0.006 1.13 0.733 2.053 1.648 2.057l3.162 0.016c0.914 0.005 1.663-0.911 1.669-2.041l0.087-17.322 1.694 0.009c0.914 0.005 1.663-0.911 1.668-2.040l0.025-4.83c0.006-1.13-0.734-2.053-1.648-2.057zM9.966 27.846l-2.794-0.014 0.085-16.866 2.794 0.014-0.085 16.866zM60.061 28.326l-2.794-0.014 0.086-17.094 2.794 0.014-0.086 17.094z"></path>
</symbol>
<symbol id="icon-hero_meat" viewBox="0 0 38 32">
<path d="M33.715 14.166l-0.034-0.194-0.079 0.181c-0.232 0.532-0.525 1.040-0.877 1.511-0.191 0.255-0.553 0.308-0.808 0.117h-0c-0.255-0.191-0.308-0.553-0.117-0.808 1.058-1.416 1.49-3.219 1.187-4.947-0.279-1.587-1.199-2.847-2.742-3.775-1.541-0.927-3.704-1.522-6.472-1.783-5.117-0.482-10.677 0.347-12.829 0.725-5.045 0.887-8.427 5.713-7.54 10.757s5.713 8.427 10.757 7.54c2.391-0.42 4.125-1.53 5.95-2.698l0.004-0.002c2.109-1.35 4.282-2.739 7.665-3.334 0.197-0.035 0.393-0.079 0.585-0.131v0c0.307-0.084 0.625 0.097 0.709 0.404s-0.097 0.625-0.404 0.709c-0.226 0.062-0.459 0.114-0.691 0.155-3.157 0.555-5.237 1.886-7.241 3.168l-0.002 0.001c-1.938 1.24-3.759 2.405-6.376 2.865-3.882 0.683-7.649-0.884-9.96-3.76l-0.104 0.051c1.143 4.718 5.787 7.807 10.634 6.955 2.391-0.42 4.125-1.53 5.95-2.698l0.004-0.002c2.109-1.35 4.282-2.739 7.665-3.334 3.484-0.613 5.82-3.945 5.207-7.429l-0.043-0.243zM23.881 3.319c2.732 0.257 4.957 0.848 6.616 1.752 2.051 1.117 3.269 2.717 3.627 4.756l0.771 4.383c0.723 4.111-2.034 8.043-6.144 8.766-3.157 0.555-5.237 1.886-7.241 3.168l-0.002 0.001c-1.938 1.24-3.759 2.405-6.376 2.865-5.671 0.997-11.097-2.806-12.094-8.477l-0.771-4.383c-0.997-5.671 2.806-11.097 8.477-12.094 2.2-0.387 7.882-1.232 13.137-0.737z"></path>
<path d="M30.585 16.214v0 0zM30.585 16.214l0-0M30.585 16.214l0-0M30.586 16.214c0.261-0.184 0.621-0.121 0.804 0.139 0.182 0.258 0.122 0.614-0.133 0.799l-0 0M30.586 16.214l0.672 0.939M31.257 17.152c-0.074 0.054-0.156 0.088-0.24 0.103-0.209 0.037-0.43-0.043-0.564-0.225l0.804 0.122z"></path>
<path d="M9.601 12.324c-0.273-1.552 0.898-3.069 2.624-3.373s3.344 0.723 3.617 2.275c0.273 1.552-0.898 3.069-2.624 3.373s-3.344-0.723-3.617-2.275zM10.738 12.124c0.165 0.939 1.196 1.529 2.28 1.338s1.851-1.097 1.686-2.036c-0.165-0.939-1.196-1.529-2.28-1.338s-1.851 1.097-1.686 2.035z"></path>
</symbol>
<symbol id="icon-hero_bottle" viewBox="0 0 21 32">
<path d="M5.63 11.775c0.087-0.032 0.157-0.098 0.195-0.182s0.042-0.18 0.010-0.267l-0.041-0.109c-0.032-0.087-0.098-0.157-0.182-0.195s-0.18-0.042-0.267-0.010-0.157 0.098-0.195 0.182c-0.038 0.084-0.042 0.18-0.010 0.267l0.041 0.109c0.032 0.087 0.098 0.157 0.182 0.195s0.18 0.042 0.267 0.010z"></path>
<path d="M8.026 18.202c0.087-0.032 0.157-0.098 0.195-0.182s0.042-0.18 0.010-0.267l-1.868-5.011c-0.032-0.087-0.098-0.157-0.182-0.195s-0.18-0.042-0.267-0.010c-0.087 0.032-0.157 0.098-0.195 0.182s-0.042 0.18-0.010 0.267l1.868 5.011c0.032 0.087 0.098 0.157 0.182 0.195s0.18 0.042 0.267 0.010z"></path>
<path d="M12.273 31.259l7.625-2.842c0.375-0.14 0.679-0.424 0.846-0.788s0.182-0.78 0.042-1.156l-7.146-19.172c-0.22-0.587-0.657-1.068-1.221-1.342s-1.212-0.321-1.809-0.131l-0.366-0.983 0.218-0.081c0.087-0.032 0.157-0.098 0.195-0.182s0.042-0.18 0.009-0.267l-0.65-1.743c-0.14-0.375-0.424-0.68-0.788-0.846s-0.78-0.182-1.156-0.042l-4.357 1.624c-0.375 0.14-0.68 0.424-0.846 0.788s-0.182 0.78-0.042 1.156l0.65 1.743c0.032 0.087 0.098 0.157 0.182 0.195s0.18 0.042 0.267 0.010l0.218-0.081 0.366 0.983c-0.576 0.247-1.035 0.707-1.282 1.283s-0.263 1.226-0.045 1.814l7.146 19.172c0.14 0.375 0.424 0.68 0.788 0.846s0.78 0.182 1.156 0.042zM3.481 5.009c-0.075-0.202-0.067-0.426 0.023-0.622s0.254-0.349 0.456-0.424l4.357-1.624c0.202-0.075 0.426-0.067 0.622 0.023s0.349 0.254 0.424 0.456l0.528 1.416-5.882 2.192-0.528-1.416zM9.59 5.089l0.365 0.98-4.793 1.787-0.365-0.98 4.793-1.787zM3.837 10.955c-0.161-0.433-0.143-0.913 0.049-1.333s0.543-0.748 0.976-0.91l5.882-2.193c0.433-0.161 0.913-0.143 1.333 0.049s0.748 0.543 0.91 0.976l1.816 4.873-4.814 1.795c-0.087 0.032-0.157 0.098-0.195 0.182s-0.042 0.18-0.010 0.267l0.555 1.489c0.032 0.087 0.098 0.157 0.182 0.195s0.18 0.042 0.267 0.010c0.087-0.032 0.157-0.098 0.195-0.182s0.042-0.18 0.010-0.267l-0.433-1.162 4.487-1.673 3.009 8.074-4.487 1.673-1.561-4.189c-0.032-0.087-0.098-0.157-0.182-0.195s-0.18-0.042-0.267-0.010c-0.087 0.032-0.157 0.098-0.195 0.182s-0.042 0.18-0.010 0.267l1.683 4.515c0.032 0.087 0.098 0.157 0.182 0.195s0.18 0.042 0.267 0.010l4.814-1.794 1.833 4.917c0.075 0.202 0.067 0.426-0.023 0.622s-0.254 0.349-0.456 0.424l-7.625 2.842c-0.202 0.075-0.426 0.067-0.622-0.023s-0.349-0.254-0.424-0.456l-7.146-19.171z"></path>
</symbol>
<symbol id="icon-hero_carrot" viewBox="0 0 24 32">
<path d="M11.671 3.637v0c-0.619 0.042-1.188 0.284-1.636 0.683l-0.099 0.088-0.083-0.103c-0.777-0.955-2.133-1.301-3.298-0.756s-1.769 1.807-1.534 3.016l0.025 0.13-0.131 0.019c-0.594 0.088-1.144 0.37-1.574 0.818v0c-0.508 0.53-0.779 1.226-0.764 1.96v0c0.015 0.734 0.316 1.417 0.846 1.925l8.247-7.781zM11.671 3.637c0.733-0.050 1.44 0.188 1.994 0.67l0.083-0.095M11.671 3.637l2.077 0.575M13.748 4.212l-0.083 0.095c0.554 0.482 0.885 1.151 0.935 1.883 0.015 0.228-0.041 0.686-0.689 2.304-0.234 0.585-0.483 1.164-0.669 1.589l-0.057 0.129 0.135 0.042c1.261 0.395 2.359 1.297 2.962 2.585 0.635 1.358 1.727 4.88 2.376 8.193 0.362 1.848 0.541 3.38 0.534 4.554v0c-0.005 0.793-0.097 1.413-0.272 1.873-0.175 0.457-0.429 0.749-0.759 0.904s-0.717 0.162-1.18 0.003c-0.465-0.16-1-0.487-1.612-0.992v0c-0.906-0.747-1.967-1.866-3.153-3.329-2.127-2.622-4.13-5.718-4.765-7.075-0.603-1.288-0.591-2.709-0.086-3.93l0.054-0.13M13.748 4.212l-6.329 8.698M7.418 12.91l-0.135-0.039c-0.446-0.129-1.049-0.31-1.649-0.505l-0.039 0.12M7.418 12.91l-1.823-0.424M5.595 12.486l0.039-0.12M5.595 12.486l0.039-0.12M3.997 10.821l0-0c-0.37-0.355-0.58-0.833-0.591-1.345l0.591 1.345zM3.997 10.821l0.006 0.005M3.997 10.821l0.006 0.005M4.003 10.826c0.070 0.060 0.212 0.132 0.398 0.213 0.192 0.084 0.449 0.183 0.765 0.296 0.632 0.225 1.505 0.503 2.58 0.81l0.086 0.025 0.052-0.073c0.171-0.242 0.364-0.47 0.579-0.68l0.086-0.084-0.080-0.090c-1.445-1.636-2.532-2.896-3.031-3.67l-0.037-0.058-0.068-0c-0.525-0.002-1.024 0.208-1.393 0.593h-0M4.003 10.826l-0.063-2.72M3.939 8.105c-0.355 0.37-0.545 0.857-0.534 1.37l0.534-1.37zM5.634 12.366c-1.657-0.54-2.045-0.79-2.21-0.948l2.21 0.948zM10.348 10.273l0.102-0.033-0.016-0.106c-0.132-0.864-0.298-1.923-0.468-2.847-0.085-0.462-0.172-0.891-0.256-1.246-0.084-0.352-0.168-0.641-0.249-0.816-0.449-0.959-1.594-1.374-2.554-0.925s-1.376 1.594-0.927 2.553c0.079 0.17 0.239 0.408 0.448 0.687 0.21 0.281 0.475 0.611 0.77 0.965 0.589 0.708 1.301 1.517 1.936 2.235l0.071 0.080 0.091-0.056c0.162-0.1 0.331-0.192 0.507-0.275 0.18-0.084 0.363-0.156 0.548-0.217zM13.845 24.45l-0.152 0.071 0.111 0.126c1.155 1.314 2.037 2.099 2.681 2.535 0.322 0.218 0.588 0.351 0.802 0.419 0.21 0.066 0.39 0.075 0.523 0.013 0.149-0.070 0.268-0.242 0.357-0.494 0.091-0.257 0.159-0.623 0.185-1.119 0.053-0.992-0.060-2.527-0.507-4.81-0.635-3.243-1.693-6.675-2.314-8.002-0.946-2.022-3.36-2.897-5.381-1.952s-2.897 3.36-1.951 5.381c0.62 1.326 2.577 4.339 4.658 6.905 0.074 0.091 0.146 0.18 0.218 0.267l0.062 0.076 1.87-0.875c0.207-0.097 0.453-0.008 0.55 0.2s0.008 0.453-0.2 0.55l-1.514 0.708zM13.775 6.25h0l-0.001-0.008c-0.035-0.507-0.267-0.975-0.653-1.311s-0.882-0.503-1.394-0.468c-0.532 0.036-1.013 0.285-1.348 0.69l-0.044 0.053 0.020 0.065c0.286 0.915 0.573 2.646 0.886 4.678l0.018 0.118 0.119-0.012c0.295-0.029 0.59-0.031 0.882-0.007l0.089 0.008 0.036-0.082c0.454-1.022 0.8-1.87 1.033-2.5 0.116-0.315 0.204-0.576 0.264-0.778 0.057-0.196 0.092-0.351 0.092-0.444z"></path>
<path d="M11.162 14.747c0.207-0.097 0.453-0.008 0.55 0.199s0.008 0.453-0.199 0.55l-1.731 0.809c-0.207 0.097-0.453 0.008-0.55-0.2s-0.008-0.453 0.199-0.55l1.731-0.809z"></path>
<path d="M12.654 18.403l2.769-1.295c0.207-0.097 0.453-0.008 0.55 0.2s0.008 0.453-0.199 0.55l-2.769 1.295c-0.207 0.097-0.453 0.008-0.55-0.199s-0.008-0.453 0.199-0.55z"></path>
</symbol>
<symbol id="icon-hero_fish" viewBox="0 0 32 32">
<path d="M24.35 12.308c-0.481-0-0.857 0.397-0.874 0.873-0.017 0.465 0.33 0.874 0.811 0.874 0.46 0 0.856-0.385 0.874-0.873s-0.352-0.874-0.811-0.874z"></path>
<path d="M6.432 9.348c-0.437-0-0.778 0.363-0.793 0.782s0.3 0.783 0.737 0.783c0.415 0 0.767-0.351 0.782-0.782s-0.311-0.783-0.726-0.783z"></path>
<path stroke-linejoin="miter" stroke-linecap="butt" stroke-miterlimit="4" stroke-width="0.384" d="M30.012 18.598l0 0.002c0.019 0.156-0.019 0.327-0.115 0.486-0.121 0.194-0.265 0.254-0.567 0.379l-0.012 0.005h-0l-0.003 0.001c-3.521 1.537-7.911 1.194-11.618 0.422-3.452-0.728-6.11-1.797-6.475-1.944-0.015-0.006-0.026-0.011-0.033-0.013-1.052-0.426-2.079-0.555-3.070-0.378s-1.932 0.658-2.813 1.431c-0.972 0.848-1.622 1.843-1.94 2.371l-0.058 0.096 0.052 0.095c1.085 1.979 2.701 3.043 4.817 3.126h0.001c0.871 0.030 1.669-0.113 2.25-0.263 0.291-0.075 0.529-0.153 0.695-0.213 0.083-0.030 0.149-0.056 0.195-0.074 0.023-0.009 0.042-0.017 0.055-0.023l0.019-0.009c0.002-0.001 0.004-0.002 0.007-0.004 0.374-0.164 0.804 0.070 0.866 0.499l0 0c0.313 2.118-0.001 3.694-0.895 4.742-1.014 1.178-2.418 1.233-2.632 1.232-0.125 0-0.232-0.034-0.334-0.097-0.108-0.069-1.457-0.942-2.914-2.466-1.463-1.53-3.022-3.704-3.555-6.367-0.62-3.099 0.042-6.615 2.444-9.812l0-0c0.247-0.33 0.708-0.358 0.977-0.068 0.221 0.239 0.236 0.612 0.027 0.889l-0 0.001c-1.752 2.35-2.27 4.646-2.342 6.346l-0.023 0.553 0.361-0.431c1.236-1.476 2.615-2.381 4.031-2.772s2.883-0.27 4.303 0.329c0.060 0.025 2.801 1.155 6.336 1.886l0.352 0.073-0.127-0.334c-1.524-4.007-1.178-7.973 2.164-10.63l0.296-0.235-0.355-0.098c-1.542-0.428-3.214-0.531-4.844-0.407-1.363 0.102-2.959 0.399-4.26 0.918l-0.001 0c-0.549 0.222-1.075 0.512-1.699 0.925v0l-0.001 0.001c-0.022 0.015-0.042 0.027-0.067 0.042-0.008 0.005-0.017 0.010-0.026 0.016-0.032 0.020-0.069 0.043-0.106 0.072-0.254 0.176-0.592 0.144-0.803-0.084v0l-0.002-0.002c-0.287-0.3-0.218-0.807 0.131-1.046 0-0 0-0 0-0l0.2-0.135c0-0 0-0 0.001-0 1.191-0.791 2.214-1.268 3.9-1.647l0.248-0.056-0.111-0.222c-0.469-0.936-1.304-1.999-3.33-2.48v-0l-0.005-0.001c-0.625-0.131-0.685-1.070-0.025-1.31 2.778-0.983 5.55-1.003 7.794 0.705l0 0c1.267 0.963 2.014 2.238 2.413 3.108l0.039 0.085 0.092 0.019c6.185 1.253 9.361 6.201 10.093 12.764zM17.871 18.322c0.015 0.040 0.030 0.081 0.045 0.121l0.18-0.073 0.045-0.188c-0.042-0.009-0.083-0.017-0.125-0.026-1.421-3.905-1.081-7.808 2.122-10.488 0.043 0.011 0.085 0.023 0.127 0.034l0.057-0.185-0.116-0.149c-0.037 0.029-0.073 0.059-0.11 0.088-1.454-0.37-3.019-0.458-4.553-0.34l2.326 11.205zM9.68 8.927c0.617-0.408 1.13-0.691 1.663-0.906l-1.663 0.906zM14.331 5.574l0.055 0.129 0.141-0.019c0.914-0.123 2.063-0.2 3.315-0.121l0.399 0.025-0.219-0.327c-0.928-1.387-2.63-2.88-5.539-2.636l-0.522 0.044 0.414 0.304c1.123 0.823 1.638 1.853 1.956 2.602zM11.092 25.87l-0.008-0.235-0.229 0.064c-1.758 0.489-3.616 0.495-5.249-0.211l-0.235 0.297c1.375 1.779 2.968 2.983 3.532 3.375l0.061 0.042 0.075-0.011c0.318-0.048 0.937-0.207 1.406-0.76l0.001-0.001c0.48-0.576 0.686-1.463 0.647-2.56zM19.934 18.81l0.042 0.088 0.097 0.014c2.678 0.389 5.823 0.465 8.446-0.562l0.148-0.058-0.023-0.154c-0.637-4.364-2.471-8.178-6.311-10.066l-0.093-0.046-0.092 0.055c-1.611 0.972-2.677 2.233-3.152 3.774-0.828 2.672 0.262 5.555 0.936 6.956z"></path>
</symbol>
<symbol id="icon-hero_arrow_next" viewBox="0 0 18 32"><path  d="M17.414 17.414a2 2 0 0 0 0-2.828L4.686 1.858a2 2 0 1 0-2.828 2.828L13.172 16 1.858 27.314a2 2 0 1 0 2.828 2.828l12.728-12.728zM14 18h2v-4h-2v4z"/></symbol><symbol id="icon-hero_arrow_prev" viewBox="0 0 18 32"><path d="M.586 14.586a2 2 0 0 0 0 2.828l12.728 12.728a2 2 0 1 0 2.828-2.828L4.828 16 16.142 4.686a2 2 0 1 0-2.828-2.828L.586 14.586zM4 14H2v4h2v-4z"/></symbol>
<symbol id="faq-arrow" width="9" height="16" fill="none">
  <path fill="#000" d="M8.707 8.707a1 1 0 0 0 0-1.414L2.343.929A1 1 0 0 0 .93 2.343L6.586 8 .929 13.657a1 1 0 1 0 1.414 1.414l6.364-6.364ZM7 9h1V7H7v2Z"/>
</symbol>
<symbol id="icon-instagram" viewBox="0 0 32 32"><path d="M16 2.884c4.272 0 4.779.016 6.467.093 4.336.197 6.361 2.255 6.559 6.559.077 1.687.092 2.193.092 6.465 0 4.273-.016 4.779-.092 6.465-.199 4.3-2.219 6.361-6.559 6.559-1.688.077-2.192.093-6.467.093-4.272 0-4.779-.016-6.465-.093-4.347-.199-6.361-2.265-6.559-6.56-.077-1.687-.093-2.192-.093-6.465 0-4.272.017-4.777.093-6.465.199-4.303 2.219-6.361 6.559-6.559 1.688-.076 2.193-.092 6.465-.092zM16 0c-4.345 0-4.889.019-6.596.096C3.593.363.364 3.587.097 9.403.018 11.111 0 11.655 0 16s.019 4.891.096 6.597c.267 5.811 3.491 9.04 9.307 9.307 1.708.077 2.252.096 6.597.096s4.891-.019 6.597-.096c5.805-.267 9.043-3.491 9.305-9.307.079-1.707.097-2.252.097-6.597s-.019-4.889-.096-6.596c-.261-5.805-3.489-9.04-9.305-9.307C20.89.018 20.345 0 15.999 0zm0 7.784a8.217 8.217 0 1 0 .001 16.433A8.217 8.217 0 0 0 16 7.784zm0 13.549a5.333 5.333 0 1 1 0-10.666 5.333 5.333 0 0 1 0 10.666zM24.541 5.54a1.92 1.92 0 1 0 0 3.841 1.92 1.92 0 0 0 0-3.841z"/></symbol><symbol id="icon-telegram" viewBox="0 0 32 32"><path d="M24.512 30.372a904.93 904.93 0 0 1-7.464-5.416l-4.128 3.897a1.154 1.154 0 0 1-1.081.276 1.17 1.17 0 0 1-.804-.768c-1.009-2.973-2.945-8.82-2.945-8.82S3.947 18.228.791 17.284A1.105 1.105 0 0 1 0 16.265 1.1 1.1 0 0 1 .723 15.2C7.76 12.596 24.978 6.136 30.568 4.067c.363-.135.769-.063 1.063.187s.427.637.347 1.011c-1.055 4.953-3.865 18.736-5.024 24.181a1.546 1.546 0 0 1-.965 1.12 1.585 1.585 0 0 1-1.476-.193zM9.832 18.803l2.239 7.384.497-4.676 13.58-12.248a.37.37 0 0 0 .044-.503.379.379 0 0 0-.501-.085L9.832 18.803z"/></symbol><symbol id="icon-viber" viewBox="0 0 32 32"><path d="M13.333 1.307c-5.781 0-10.667 4.607-10.667 10.06v4.664c0 4.515 1.364 7.454 4.164 8.953v3.068a2.58 2.58 0 0 0 2.584 2.586c.659 0 1.306-.253 1.799-.732l3.948-3.813h4.091c5.559 0 10.081-4.514 10.081-10.063v-4.664c0-5.548-4.523-10.06-10.081-10.06zm0 2.667h5.922c4.088 0 7.414 3.316 7.414 7.393v4.664c0 4.079-3.327 7.396-7.414 7.396h-4.63c-.345 0-.678.134-.927.375l-4.201 4.057v-3.724c0-.545-.334-1.036-.841-1.237-2.268-.904-3.323-3.086-3.323-6.867v-4.664c0-3.939 3.739-7.393 8-7.393zm4 1.333a.667.667 0 0 0 0 1.334c3.929 0 6.667 3.513 6.667 6.667a.667.667 0 0 0 1.334 0c0-3.784-3.285-8-8-8zm-6.664 1.347a1.221 1.221 0 0 0-.93.24l-.784.604a2.415 2.415 0 0 0-.698 3.005c.984 1.956 2.633 4.97 4.023 6.253 1.709 1.579 4.395 3.45 6.654 4.37a2.476 2.476 0 0 0 2.813-.69c.247-.288.477-.581.677-.846a1.213 1.213 0 0 0-.263-1.714l-2.495-1.794a1.23 1.23 0 0 0-1.688.242l-.419.464c-.277.307-.695.468-1.102.385-.635-.128-1.641-.542-2.802-1.786-.959-1.024-1.497-2.114-1.693-2.872a1.204 1.204 0 0 1 .406-1.227l.419-.349a1.21 1.21 0 0 0 .219-1.633l-1.521-2.148c-.2-.283-.5-.455-.818-.503zm6.664 1.32a.667.667 0 0 0 0 1.334c2.019 0 4 1.981 4 4a.667.667 0 0 0 1.334 0c0-2.741-2.592-5.333-5.333-5.333zm0 2.667a.667.667 0 0 0 0 1.334c.86 0 1.333.473 1.333 1.333a.667.667 0 0 0 1.334 0c0-1.595-1.072-2.667-2.667-2.667z"/></symbol><symbol id="icon-facebook" viewBox="0 0 32 32"><path d="M19 6h5V0h-5c-3.86 0-7 3.14-7 7v3H8v6h4v16h6V16h5l1-6h-6V7c0-.542.458-1 1-1z"/></symbol>
  </defs>
</svg>
