<svg width="25" height="12" viewBox="0 0 25 12" fill="none" xmlns="http://www.w3.org/2000/svg">
<path d="M23.8985 0.870916L5.90562 0.779985C5.71485 0.779021 5.55922 0.969343 5.55803 1.20506C5.55684 1.44079 5.71053 1.63267 5.90131 1.63363L23.8251 1.72422L23.8168 3.36476L1.61674 3.25257L1.62504 1.61202L4.51956 1.62665C4.71033 1.62762 4.86596 1.43729 4.86715 1.20157C4.86835 0.965852 4.71465 0.773967 4.52388 0.773002L1.56026 0.758025C1.2174 0.756292 0.936735 1.09953 0.934594 1.52317L0.92544 3.33444C0.923299 3.75808 1.20049 4.10414 1.54334 4.10587L2.0305 4.10833L1.9981 10.5186C1.99596 10.9423 2.27315 11.2883 2.61601 11.2901L3.80191 11.2961C4.14477 11.2978 4.42544 10.9546 4.42758 10.5309C4.42758 10.5309 4.4437 7.34209 4.4488 6.33156C4.45391 5.32102 4.45312 5.47791 4.45312 5.47791C4.45743 4.62426 4.45998 4.12061 4.45998 4.12061L20.8168 4.20327C20.8168 4.20327 20.813 4.95972 20.81 5.56057C20.807 6.16142 20.8069 6.16169 20.8056 6.41422C20.8044 6.66676 20.784 10.6989 20.784 10.6989C20.7818 11.1226 21.059 11.4686 21.4019 11.4704L22.5877 11.4764C22.9306 11.4781 23.2113 11.1349 23.2134 10.7112L23.2462 4.2156L23.8816 4.21882C24.2244 4.22055 24.5051 3.87731 24.5072 3.45367L24.5164 1.6424C24.5185 1.21871 24.2413 0.872649 23.8985 0.870916ZM3.73714 10.4421L2.68941 10.4368L2.72137 4.11188L3.7691 4.11717L3.73714 10.4421ZM22.523 10.6224L21.4753 10.6171L21.5077 4.20682L22.5554 4.21211L22.523 10.6224Z" fill="#020202"/>
</svg>
