<svg width="69" height="69" viewBox="0 0 69 69" fill="none" xmlns="http://www.w3.org/2000/svg">
<path d="M34.0827 67.9174C15.4263 67.9174 0.249023 52.7401 0.249023 34.0837C0.249023 15.4273 15.4263 0.25 34.0827 0.25C52.7391 0.25 67.9164 15.4273 67.9164 34.0837C67.9164 52.7401 52.7391 67.9174 34.0827 67.9174ZM34.0827 4.01046C17.4993 4.01046 4.00948 17.5003 4.00948 34.0837C4.00948 50.6671 17.4993 64.1569 34.0827 64.1569C50.6661 64.1569 64.1559 50.6671 64.1559 34.0837C64.1559 17.5003 50.6661 4.01046 34.0827 4.01046Z" fill="#64D370" stroke="#E5E5E5" stroke-width="0.5"/>
<path d="M47.6667 51.7445L47.6661 51.744L32.7545 36.8324C32.4009 36.4787 32.2031 35.9999 32.2031 35.5041V15.6216C32.2031 14.5837 33.0455 13.7413 34.0834 13.7413C35.1212 13.7413 35.9636 14.5837 35.9636 15.6216V34.6205V34.724L36.0368 34.7972L50.3238 49.0842C51.0583 49.8187 51.0583 51.0095 50.3238 51.744L50.3233 51.7445C49.9573 52.1128 49.4771 52.2959 48.995 52.2959C48.5129 52.2959 48.0326 52.1128 47.6667 51.7445Z" fill="#64D370" stroke="#E5E5E5" stroke-width="0.5"/>
</svg>
