<svg width="100" height="69" viewBox="0 0 100 69" fill="none" xmlns="http://www.w3.org/2000/svg">
<path d="M71.2514 28.7604V28.8604H71.3513H84.428C88.5182 28.8604 92.2799 30.8851 94.494 34.2751L94.5778 34.2204L94.494 34.2751L99.5503 42.0115L99.634 41.9568L99.5503 42.0115C99.7075 42.2519 99.7917 42.535 99.7917 42.8242V60.4726C99.7917 61.2939 99.1278 61.9586 98.3067 61.9586H92.9637H92.8843L92.8663 62.0359C91.9747 65.8714 88.5347 68.7414 84.4325 68.7414C80.3304 68.7414 76.8913 65.8714 75.9988 62.0359L75.9808 61.9586H75.9014H45.3958H45.3164L45.2984 62.0359C44.4068 65.8714 40.9686 68.7414 36.8647 68.7414C32.7616 68.7414 29.3225 65.8714 28.4309 62.0359L28.4129 61.9586H28.3335H14.2706C13.4503 61.9586 12.7847 61.2938 12.7847 60.4726V58.9076C12.7847 55.7027 14.7212 52.9486 17.4819 51.7308L17.5416 51.7045V51.6393V44.617V44.517H17.4416H1.58593C0.764723 44.517 0.1 43.8522 0.1 43.031C0.1 42.2098 0.764723 41.5451 1.58593 41.5451H17.4416H17.5416V41.4451V38.2742V38.1742H17.4416H11.0988C10.2784 38.1742 9.61376 37.5103 9.61376 36.6891C9.61376 35.8679 10.2785 35.2032 11.0988 35.2032H17.4416H17.5416V35.1032V31.9323V31.8323H17.4416H1.58593C0.764723 31.8323 0.1 31.1675 0.1 30.3463C0.1 29.5251 0.764723 28.8604 1.58593 28.8604H14.6789H15.0088L14.7344 28.6772C10.5838 25.9059 7.84274 21.1832 7.84274 15.8298C7.84274 7.31577 14.7695 0.388086 23.2845 0.388086C30.804 0.388086 37.0783 5.79574 38.4431 12.9236L38.4587 13.0047H38.5413H63.0207C67.5599 13.0047 71.2514 16.6962 71.2514 21.2354V28.7604ZM20.6125 44.517H20.5125V44.617V50.9607V51.0607H20.6125C20.6236 51.0607 20.6332 51.0593 20.6363 51.0589H68.1804H68.2804V50.9589V21.2354C68.2804 18.3359 65.9212 15.9757 63.0216 15.9757H38.8144H38.716L38.7144 16.0741C38.6315 21.3257 35.921 25.9484 31.8345 28.6772L31.5602 28.8604H31.89H41.2251C42.0454 28.8604 42.711 29.5252 42.711 30.3463C42.711 31.1675 42.0454 31.8323 41.2251 31.8323H20.6125H20.5125V31.9323V35.1032V35.2032H20.6125H31.7122C32.5325 35.2032 33.1972 35.8679 33.1972 36.6891C33.1972 37.5103 32.5326 38.1742 31.7122 38.1742H20.6125H20.5125V38.2742V41.4451V41.5451H20.6125H23.7835C24.6047 41.5451 25.2694 42.2098 25.2694 43.031C25.2694 43.8522 24.6047 44.517 23.7835 44.517H20.6125ZM68.1804 58.9867H68.2804V58.8867V54.1298V54.0298H68.1804H43.2864H43.0574L43.2131 54.1978C44.3944 55.4725 45.1944 57.0976 45.441 58.9002L45.4528 58.9867H45.5401H68.1804ZM30.5163 54.1978L30.6718 54.0298H30.4429H20.6325C17.9508 54.0298 15.7668 56.2074 15.7557 58.8863L15.7552 58.9867H15.8557H28.1901H28.2774L28.2892 58.9002C28.535 57.0976 29.3358 55.4725 30.5163 54.1978ZM96.7208 58.9867H96.8208V58.8867V43.296V43.2662L96.8045 43.2413L92.0077 35.8995L91.924 35.9542L92.0077 35.8995C90.3431 33.3522 87.5088 31.8323 84.428 31.8323H71.3513H71.2514V31.9323V58.8867V58.9867H71.3513H75.7571H75.8444L75.8562 58.9002C76.4338 54.6783 80.055 51.4109 84.4325 51.4109C88.8101 51.4109 92.4321 54.6783 93.0089 58.9002L93.0207 58.9867H93.108H96.7208ZM23.2845 3.35904C16.4083 3.35904 10.8137 8.95365 10.8137 15.8298C10.8137 22.706 16.4083 28.3006 23.2845 28.3006C30.1616 28.3006 35.7553 22.706 35.7553 15.8298C35.7553 8.95366 30.1616 3.35904 23.2845 3.35904ZM31.1704 60.0761C31.1704 63.2161 33.7256 65.7704 36.8647 65.7704C40.0047 65.7704 42.559 63.2161 42.559 60.0761C42.559 56.9371 40.0047 54.3818 36.8647 54.3818C33.7256 54.3818 31.1704 56.9371 31.1704 60.0761ZM78.7382 60.0761C78.7382 63.2161 81.2935 65.7704 84.4325 65.7704C87.5725 65.7704 90.1268 63.2161 90.1268 60.0761C90.1268 56.9371 87.5725 54.3818 84.4325 54.3818C81.2934 54.3818 78.7382 56.9371 78.7382 60.0761Z" fill="#64D370" stroke="#E5E5E5" stroke-width="0.2"/>
<path d="M22.2782 15.3717L22.2974 15.3454V15.3128V8.89288C22.2974 8.07171 22.962 7.40786 23.7824 7.40786C24.6037 7.40786 25.2683 8.07175 25.2683 8.89288V15.83C25.2683 16.1453 25.168 16.4514 24.9835 16.7047L21.4425 21.5604L21.4424 21.5605C21.1517 21.96 20.6997 22.1717 20.2413 22.1717C19.9379 22.1717 19.6321 22.0791 19.3667 21.8852L19.3665 21.8851C18.7036 21.4023 18.5582 20.4742 19.0419 19.8111L19.0419 19.811L22.2782 15.3717Z" fill="#64D370" stroke="#E5E5E5" stroke-width="0.2"/>
<path d="M93.8414 43.7184L93.8415 43.7186C94.3155 44.545 94.3147 45.5357 93.8336 46.364C93.3524 47.1925 92.4953 47.6879 91.5367 47.6879H80.8652C80.044 47.6879 79.3793 47.0231 79.3793 46.2019V35.1031C79.3793 34.2819 80.044 33.6172 80.8652 33.6172H83.8983C86.4717 33.6172 88.8638 35.0061 90.1388 37.2377L93.8414 43.7184ZM82.3512 44.6169V44.7169H82.4512H90.8172H90.9895L90.904 44.5673L87.5589 38.7126C87.5589 38.7126 87.5589 38.7126 87.5589 38.7126C86.8107 37.4021 85.4084 36.5891 83.8983 36.5891H82.4512H82.3512V36.6891V44.6169Z" fill="#64D370" stroke="#E5E5E5" stroke-width="0.2"/>
</svg>
