<svg width="63" height="63" viewBox="0 0 63 63" fill="none" xmlns="http://www.w3.org/2000/svg">
<path d="M53.4329 52.175V52.1751C53.4329 57.9601 48.6682 62.6655 42.8126 62.6655H10.7124C5.33535 62.6655 0.959773 58.344 0.959773 53.0308M53.4329 52.175L48.6861 8.75895M53.4329 52.175C53.4301 50.5827 53.0628 49.0121 52.3591 47.5838C51.6685 46.1821 50.672 44.9539 49.4436 43.9896M53.4329 52.175L49.3889 44.0102C49.4071 44.0034 49.4254 43.9965 49.4436 43.9896M0.959773 53.0308H1.00977L0.959773 53.0309C0.959773 53.0308 0.959773 53.0308 0.959773 53.0308ZM0.959773 53.0308C0.956613 50.5131 1.95214 48.097 3.72799 46.3123C5.16839 44.8513 7.03294 43.8826 9.05551 43.5436C8.86527 42.7261 8.76892 41.8895 8.76837 41.0501C8.76837 34.7932 13.9219 29.7039 20.2558 29.7039C21.5715 29.7043 22.8771 29.9305 24.1159 30.3725C23.74 28.8253 23.5507 27.2386 23.5521 25.6462M23.5521 25.6462L23.6021 25.6462M23.5521 25.6462C23.5521 25.6462 23.5521 25.6462 23.5521 25.6462H23.6021M23.5521 25.6462C23.5521 14.8609 32.1454 6.08464 42.7102 6.08464C44.5835 6.08464 46.7591 6.16595 48.6509 6.77301C48.8637 6.84117 49.05 6.9738 49.184 7.15253C49.318 7.33126 49.3931 7.54725 49.399 7.77058C49.4048 7.9939 49.341 8.21351 49.2164 8.39897C49.0919 8.58444 48.9128 8.72658 48.7038 8.80571M23.6021 25.6462C23.6007 27.2456 23.7922 28.8394 24.1723 30.3928L48.6357 6.82063C46.7519 6.21616 44.5832 6.13464 42.7102 6.13464C32.174 6.13464 23.6021 14.8875 23.6021 25.6462ZM48.7038 8.80571L48.6861 8.75895M48.7038 8.80571C48.7039 8.8057 48.7039 8.8057 48.7039 8.80569L48.6861 8.75895M48.7038 8.80571C43.9742 10.6013 40.6696 15.4299 40.6696 20.547C40.6696 27.3351 46.0613 32.8555 52.686 32.8555C55.1661 32.8555 57.156 32.3037 58.9521 31.1208C59.1399 30.9971 59.3618 30.9354 59.5865 30.9441C59.8112 30.9529 60.0275 31.0318 60.2051 31.1698C60.3827 31.3077 60.5126 31.4978 60.5767 31.7133C60.6408 31.9289 60.6358 32.1591 60.5624 32.3717C58.6806 37.822 54.6107 42.0285 49.4436 43.9896M48.6861 8.75895C43.9367 10.562 40.6196 15.4094 40.6196 20.547C40.6196 27.3615 46.0326 32.9055 52.686 32.9055C55.1744 32.9055 57.1742 32.3516 58.9796 31.1626C59.1587 31.0446 59.3702 30.9857 59.5845 30.9941C59.7988 31.0025 60.0051 31.0777 60.1744 31.2092C60.3437 31.3408 60.4677 31.522 60.5288 31.7276C60.5899 31.9331 60.5851 32.1527 60.5151 32.3553C58.6346 37.802 54.5639 42.0025 49.3975 43.9535C49.4129 43.9655 49.4282 43.9775 49.4436 43.9896M24.1301 30.4308C22.8875 29.9833 21.5767 29.7543 20.2557 29.7539C13.9489 29.7539 8.81837 34.8214 8.81837 41.0501C8.81892 41.8868 8.91508 42.7207 9.10495 43.5355L24.1301 30.4308ZM5.25996 47.8262L5.2601 47.826C6.64401 46.4245 8.51685 45.6132 10.4858 45.5624L10.486 45.5624C10.6561 45.5574 10.8226 45.5121 10.9718 45.4303C11.121 45.3485 11.2487 45.2326 11.3444 45.0919C11.4401 44.9513 11.5012 44.7899 11.5225 44.6211C11.5439 44.4523 11.5249 44.2809 11.4673 44.1208L11.4672 44.1207C11.1089 43.1364 10.9243 42.0974 10.9218 41.0499C10.9219 35.9822 15.1084 31.8577 20.2554 31.8577C24.1344 31.8577 27.6484 34.2712 28.9995 37.8614C29.0515 37.9994 29.1312 38.1253 29.2338 38.2313C29.3364 38.3372 29.4597 38.421 29.596 38.4774C29.7323 38.5337 29.8788 38.5615 30.0263 38.5589C30.1737 38.5563 30.3191 38.5235 30.4534 38.4624L30.4535 38.4623C31.3371 38.0576 32.2976 37.8481 33.2696 37.8482C36.466 37.8482 39.2406 40.0839 39.868 43.1628C39.9248 43.4417 40.0897 43.6867 40.3267 43.8444C40.5636 44.002 40.8534 44.0595 41.1326 44.0041L41.1228 43.9551L41.1326 44.0041C41.6859 43.8943 42.2487 43.8387 42.8128 43.8382C47.4817 43.8385 51.279 47.5791 51.279 52.1751C51.279 56.771 47.4817 60.5116 42.8126 60.5116H10.7124C6.52171 60.5116 3.11362 57.1549 3.11362 53.0308C3.11175 51.0801 3.88364 49.2084 5.25996 47.8262ZM45.0398 8.30932C41.0875 11.0073 38.5158 15.6653 38.5158 20.547C38.5158 28.5206 44.8715 35.0094 52.686 35.0094C54.42 35.0094 55.9605 34.7749 57.3803 34.2846C55.1717 38.3819 51.4371 41.3673 46.9633 42.5205C45.3064 41.825 43.5013 41.5572 41.7141 41.7417C40.5353 38.1833 37.1346 35.6947 33.2694 35.6947C32.3587 35.6939 31.4533 35.8335 30.5852 36.1086C29.7132 34.3434 28.3996 32.8335 26.7717 31.7255C26.0629 29.7773 25.7022 27.7195 25.7059 25.6463V25.6462C25.7059 16.0464 33.3352 8.23849 42.7102 8.23849C43.4558 8.23849 44.249 8.25173 45.0398 8.30932Z" fill="#64D370" stroke="#64D370" stroke-width="0.1"/>
<path d="M53.2525 23.1625L54.4102 21.4261L55.5681 23.1628L55.5682 23.1631C55.7274 23.399 55.9735 23.5624 56.2527 23.6175C56.532 23.6725 56.8217 23.6148 57.0585 23.4569C57.2953 23.299 57.46 23.0538 57.5165 22.7748C57.573 22.4959 57.5169 22.2059 57.3602 21.9682L57.3601 21.968L56.0884 20.0604L57.8316 19.4793L57.8321 19.4792C58.1004 19.3868 58.3214 19.1922 58.447 18.9378C58.5727 18.6833 58.5928 18.3895 58.5031 18.1203C58.4133 17.8511 58.2209 17.6282 57.9677 17.5C57.7145 17.3719 57.421 17.3489 57.1509 17.436L57.1504 17.4361L55.4872 17.9904V16.4039C55.4872 16.1183 55.3737 15.8443 55.1717 15.6424C54.9698 15.4404 54.6959 15.327 54.4102 15.327C54.1246 15.327 53.8507 15.4404 53.6487 15.6424C53.4468 15.8443 53.3333 16.1183 53.3333 16.4039V17.9904L51.6705 17.4362C51.6704 17.4361 51.6704 17.4361 51.6703 17.4361C51.5358 17.3898 51.3935 17.3706 51.2515 17.3797C51.1095 17.3887 50.9707 17.4258 50.8431 17.4888C50.7155 17.5518 50.6016 17.6395 50.5081 17.7468C50.4146 17.8541 50.3433 17.9788 50.2982 18.1138C50.2532 18.2488 50.2354 18.3914 50.2459 18.5333C50.2563 18.6753 50.2948 18.8137 50.359 18.9407C50.4233 19.0677 50.5121 19.1807 50.6203 19.2731C50.7284 19.3655 50.8537 19.4356 50.9891 19.4793C50.9892 19.4793 50.9893 19.4793 50.9894 19.4793L52.7321 20.0603L51.4605 21.9676C51.4605 21.9677 51.4605 21.9677 51.4604 21.9678C51.3811 22.0854 51.3259 22.2175 51.2978 22.3566C51.2697 22.4957 51.2693 22.6389 51.2968 22.7782C51.3242 22.9174 51.3789 23.0498 51.4577 23.1678C51.5365 23.2859 51.6378 23.3871 51.7559 23.4659C51.874 23.5446 52.0065 23.5992 52.1457 23.6266C52.2849 23.6539 52.4282 23.6535 52.5673 23.6253C52.7064 23.5971 52.8385 23.5417 52.9561 23.4623C53.0737 23.3829 53.1744 23.281 53.2525 23.1626C53.2525 23.1626 53.2525 23.1625 53.2525 23.1625Z" fill="#64D370" stroke="#64D370" stroke-width="0.1"/>
<path d="M8.06697 31.21L6.79539 29.3026L8.53862 28.7215L8.53908 28.7214C8.80741 28.629 9.02842 28.4344 9.15407 28.1799C9.27973 27.9255 9.29986 27.6317 9.21011 27.3625C9.12036 27.0933 8.92797 26.8704 8.67477 26.7422C8.42157 26.6141 8.12802 26.5911 7.85793 26.6782L7.85747 26.6783L6.19419 27.2326V25.6461C6.19419 25.3604 6.08073 25.0865 5.87877 24.8846C5.67681 24.6826 5.40289 24.5691 5.11727 24.5691C4.83165 24.5691 4.55773 24.6826 4.35577 24.8846C4.15381 25.0865 4.04034 25.3604 4.04034 25.6461V27.2326L2.37754 26.6783C2.37746 26.6783 2.37738 26.6783 2.37731 26.6783C2.24281 26.632 2.10049 26.6128 1.95854 26.6218C1.81652 26.6309 1.67769 26.668 1.55009 26.731C1.42248 26.794 1.30863 26.8817 1.21512 26.989C1.12161 27.0962 1.05029 27.221 1.00528 27.356C0.960269 27.491 0.942465 27.6336 0.952897 27.7755C0.963329 27.9175 1.00179 28.0559 1.06605 28.1829C1.13032 28.3099 1.21911 28.4229 1.3273 28.5153C1.43542 28.6077 1.56077 28.6778 1.69612 28.7215C1.69621 28.7215 1.6963 28.7215 1.69639 28.7215L3.43915 29.3025L2.16757 31.2098C2.16754 31.2099 2.16751 31.2099 2.16749 31.21C2.08818 31.3276 2.03289 31.4597 2.00479 31.5988C1.97669 31.7378 1.97635 31.8811 2.0038 32.0204C2.03125 32.1596 2.08594 32.292 2.16474 32.41C2.24354 32.528 2.34488 32.6293 2.46295 32.7081C2.58102 32.7868 2.71348 32.8414 2.85273 32.8688C2.99197 32.8961 3.13525 32.8957 3.27433 32.8675C3.4134 32.8393 3.54554 32.7839 3.66314 32.7045C3.7807 32.6251 3.88142 32.5232 3.95951 32.4048C3.95953 32.4048 3.95955 32.4047 3.95957 32.4047L5.11727 30.6683L6.27497 32.4048C6.275 32.4049 6.27503 32.4049 6.27507 32.405C6.35315 32.5234 6.45385 32.6252 6.5714 32.7046C6.689 32.784 6.82113 32.8394 6.96021 32.8676C7.09929 32.8958 7.24257 32.8962 7.38181 32.8689C7.52106 32.8415 7.65352 32.7869 7.77159 32.7082C7.88965 32.6295 7.991 32.5282 8.0698 32.4102C8.14859 32.2921 8.20329 32.1597 8.23074 32.0205C8.25819 31.8813 8.25785 31.738 8.22974 31.5989C8.20165 31.4598 8.14636 31.3277 8.06705 31.2101C8.06702 31.21 8.067 31.21 8.06697 31.21Z" fill="#64D370" stroke="#64D370" stroke-width="0.1"/>
<path d="M10.1219 10.8396L10.1219 10.8396L11.2798 9.10283L12.4376 10.8396L12.4378 10.8398C12.5969 11.0758 12.843 11.2392 13.1223 11.2942C13.4015 11.3493 13.6912 11.2915 13.928 11.1336C14.1648 10.9757 14.3295 10.7305 14.386 10.4516C14.4426 10.1726 14.3864 9.88263 14.2298 9.64498L14.2296 9.64476L12.9579 7.73716L14.7011 7.15609L14.7016 7.15592C14.9699 7.06353 15.1909 6.86896 15.3166 6.61451C15.4422 6.36006 15.4624 6.0663 15.3726 5.79708C15.2829 5.52786 15.0905 5.30495 14.8373 5.1768C14.5841 5.04865 14.2905 5.02563 14.0204 5.11273L14.02 5.11288L12.3567 5.66718V4.08063C12.3567 3.79502 12.2432 3.5211 12.0413 3.31913C11.8393 3.11717 11.5654 3.00371 11.2798 3.00371C10.9941 3.00371 10.7202 3.11717 10.5183 3.31913C10.3163 3.5211 10.2028 3.79502 10.2028 4.08063V5.66718L8.53957 5.11275L8.53957 5.11275L8.5391 5.1126C8.26902 5.0255 7.97547 5.04853 7.72226 5.17667C7.46906 5.30482 7.27667 5.52773 7.18692 5.79695C7.09717 6.06617 7.11731 6.35993 7.24296 6.61438C7.36862 6.86884 7.58963 7.0634 7.85795 7.1558L7.85842 7.15595L9.60165 7.73703L8.32991 9.64476C8.32991 9.64476 8.32991 9.64476 8.32991 9.64476C8.17147 9.88239 8.11392 10.1732 8.16991 10.4533C8.22591 10.7334 8.39086 10.9797 8.62849 11.1382L8.65623 11.0966L8.62849 11.1382C8.86613 11.2966 9.15697 11.3542 9.43704 11.2982C9.71711 11.2422 9.96347 11.0772 10.1219 10.8396Z" fill="#64D370" stroke="#64D370" stroke-width="0.1"/>
<path d="M59.5445 7.21164C60.1393 7.21164 60.6214 6.72948 60.6214 6.13471C60.6214 5.53994 60.1393 5.05779 59.5445 5.05779C58.9497 5.05779 58.4676 5.53994 58.4676 6.13471C58.4676 6.72948 58.9497 7.21164 59.5445 7.21164Z" fill="#64D370" stroke="#64D370" stroke-width="0.1"/>
<path d="M17.439 22.6154C18.0338 22.6154 18.516 22.1333 18.516 21.5385C18.516 20.9438 18.0338 20.4616 17.439 20.4616C16.8443 20.4616 16.3621 20.9438 16.3621 21.5385C16.3621 22.1333 16.8443 22.6154 17.439 22.6154Z" fill="#64D370" stroke="#64D370" stroke-width="0.1"/>
<path d="M32.8433 3.10385C33.4381 3.10385 33.9203 2.62169 33.9203 2.02692C33.9203 1.43216 33.4381 0.95 32.8433 0.95C32.2486 0.95 31.7664 1.43216 31.7664 2.02692C31.7664 2.62169 32.2486 3.10385 32.8433 3.10385Z" fill="#64D370" stroke="#64D370" stroke-width="0.1"/>
<path d="M61.5992 43.1538C62.194 43.1538 62.6761 42.6716 62.6761 42.0769C62.6761 41.4821 62.194 40.9999 61.5992 40.9999C61.0044 40.9999 60.5223 41.4821 60.5223 42.0769C60.5223 42.6716 61.0044 43.1538 61.5992 43.1538Z" fill="#64D370" stroke="#64D370" stroke-width="0.1"/>
</svg>
