<svg width="69" height="68" viewBox="0 0 69 68" fill="none" xmlns="http://www.w3.org/2000/svg">
<path d="M63.3108 14.8834H63.2184L63.269 14.9608C67.2982 21.1221 69.2277 28.4745 68.7234 35.8905C68.1657 44.0901 64.6546 51.8101 58.8365 57.6282C52.321 64.1435 43.6344 67.606 34.7805 67.606C30.5042 67.606 26.1896 66.7986 22.0604 65.1374C21.4039 64.8734 21.0858 64.1272 21.35 63.4707L21.3036 63.4521L21.35 63.4707C21.6142 62.8142 22.3602 62.4965 23.0167 62.7604C34.7407 67.4771 48.0898 64.7512 57.0247 55.8163C67.1564 45.6846 69.0325 29.8777 61.9739 17.7379L61.8806 17.5775V17.763V19.4147C61.8806 20.1223 61.3071 20.6958 60.5996 20.6958C59.892 20.6958 59.3185 20.1223 59.3185 19.4147V13.6023C59.3185 12.8948 59.892 12.3212 60.5996 12.3212H66.412C67.1195 12.3212 67.693 12.8948 67.693 13.6023C67.693 14.3099 67.1195 14.8834 66.412 14.8834H63.3108Z" fill="#64D370" stroke="#E5E5E5" stroke-width="0.1"/>
<path d="M7.05612 50.3616L7.14906 50.5173V50.3359V48.4416C7.14906 47.734 7.7226 47.1605 8.43014 47.1605C9.13767 47.1605 9.7112 47.734 9.71108 48.4415V54.3759C9.71108 55.0834 9.13754 55.657 8.43 55.657H2.49568C1.78814 55.657 1.21461 55.0834 1.21461 54.3759C1.21461 53.6683 1.78814 53.0948 2.49568 53.0948H5.65897H5.75211L5.70065 53.0172C1.59198 46.8198 -0.380455 39.3976 0.128735 31.9102C0.686432 23.7108 4.19769 15.9908 10.0158 10.1726C14.852 5.33641 20.945 2.10179 27.6362 0.818396C34.1658 -0.434053 40.8579 0.231848 46.9897 2.74388L47.0086 2.69762L46.9897 2.74389C47.6443 3.01201 47.9577 3.76016 47.6895 4.41491C47.4213 5.06942 46.6732 5.38302 46.0184 5.11464C34.2449 0.29157 20.8238 2.9881 11.8275 11.9844C1.61243 22.1995 -0.209157 38.1832 7.05612 50.3616Z" fill="#64D370" stroke="#E5E5E5" stroke-width="0.1"/>
<path d="M31.2184 28.7607C31.0084 28.8646 30.8482 29.0476 30.7732 29.2695C30.6981 29.4915 30.7143 29.7341 30.8182 29.9441L35.2171 38.8381C35.3209 39.0481 35.504 39.2083 35.7259 39.2833C35.9478 39.3584 36.1905 39.3422 36.4005 39.2383C36.6105 39.1345 36.7706 38.9514 36.8457 38.7295C36.9207 38.5076 36.9045 38.2649 36.8007 38.0549L32.4018 29.1609C32.2979 28.9509 32.1149 28.7908 31.893 28.7157C31.671 28.6407 31.4284 28.6569 31.2184 28.7607Z" fill="#64D370" stroke="#64D370" stroke-width="0.2"/>
<path d="M40.5448 36.203L36.1459 27.309C36.0421 27.099 35.859 26.9388 35.6371 26.8638C35.4152 26.7887 35.1725 26.8049 34.9625 26.9088C34.7525 27.0126 34.5924 27.1957 34.5173 27.4176C34.4423 27.6395 34.4585 27.8822 34.5623 28.0922L38.9612 36.9862C39.0651 37.1962 39.2481 37.3563 39.47 37.4314C39.692 37.5064 39.9346 37.4902 40.1446 37.3864C40.3546 37.2825 40.5148 37.0995 40.5898 36.8776C40.6649 36.6556 40.6487 36.413 40.5448 36.203Z" fill="#64D370" stroke="#64D370" stroke-width="0.2"/>
<path d="M52.3779 17.728L52.3783 17.7302C52.3883 17.7947 52.3908 17.8601 52.3858 17.9252C52.3875 17.9794 52.3841 18.0336 52.3757 18.0872C52.3758 18.1276 52.3729 18.168 52.3671 18.2081L52.3654 18.2201L52.3608 18.2314L52.3375 18.289C52.2047 18.6239 49.0139 26.4651 43.1015 31.9464L45.1354 36.0587C45.9352 37.6041 46.223 39.3637 45.9572 41.0833L45.9569 41.0856L45.6558 42.7695C45.6557 42.7701 45.6556 42.7707 45.6556 42.7712C45.4638 44.1055 45.6903 45.4663 46.3037 46.6667L46.3043 46.6678L49.5803 53.2915C49.6841 53.5015 49.7003 53.7442 49.6253 53.9661C49.5502 54.188 49.3901 54.3711 49.1801 54.4749C48.9701 54.5788 48.7274 54.595 48.5055 54.5199C48.2836 54.4449 48.1005 54.2847 47.9967 54.0747L44.721 47.4517C43.9284 45.9108 43.644 44.1585 43.9085 42.446L43.9089 42.4437L44.2099 40.7598C44.21 40.7592 44.2101 40.7587 44.2102 40.7581C44.403 39.4169 44.1733 38.0489 43.5529 36.8442L43.5522 36.8428L38.3083 26.2402C38.2044 26.0302 38.1882 25.7875 38.2633 25.5656C38.3383 25.3437 38.4985 25.1606 38.7085 25.0568C38.9185 24.9529 39.1611 24.9367 39.383 25.0118C39.605 25.0868 39.788 25.247 39.8919 25.457L42.2831 30.2917C46.526 26.1844 49.2896 20.7364 50.3046 18.5643C47.5937 17.9535 39.8512 16.5438 33.2333 18.4327C33.7176 20.482 34.0415 22.5659 34.2022 24.6655L34.2022 24.6658C34.2194 24.8996 34.143 25.1305 33.9899 25.3079C33.8367 25.4853 33.6194 25.5946 33.3857 25.6117C33.152 25.6288 32.921 25.5524 32.7436 25.3993C32.5664 25.2463 32.4572 25.0292 32.4399 24.7957C32.1432 21.377 31.4375 18.0065 30.3382 14.7564L21.3667 41.2639C23.334 40.9682 27.0893 40.0091 29.6105 36.9257L27.0737 31.7967C26.9699 31.5867 26.9537 31.344 27.0287 31.1221C27.1038 30.9002 27.2639 30.7171 27.4739 30.6133C27.6839 30.5094 27.9266 30.4932 28.1485 30.5683C28.3704 30.6433 28.5535 30.8035 28.6573 31.0135L33.9013 41.616L33.902 41.6175L33.902 41.6175C34.4826 42.8419 35.4305 43.8548 36.6137 44.5152C36.6142 44.5155 36.6147 44.5158 36.6152 44.5161L38.1362 45.2988L38.1383 45.2999C39.6601 46.1287 40.8802 47.4184 41.6235 48.9837L44.8992 55.6067C45.0031 55.8167 45.0193 56.0594 44.9442 56.2813C44.8692 56.5032 44.709 56.6863 44.499 56.7901C44.289 56.894 44.0464 56.9102 43.8245 56.8351C43.6025 56.7601 43.4195 56.5999 43.3156 56.39L40.0396 49.7663L40.039 49.7651C39.4576 48.5488 38.5132 47.5427 37.3361 46.8856C37.3357 46.8854 37.3354 46.8852 37.335 46.885L35.804 46.0832L35.8026 46.0824C34.2808 45.2536 33.0606 43.9639 32.3173 42.3986L30.4605 38.6442C29.3512 39.8302 28.0332 40.8028 26.5719 41.5132M52.3779 17.728L26.5282 41.4233M52.3779 17.728C52.3576 17.6136 52.3057 17.5073 52.2282 17.4209C52.1967 17.3761 52.161 17.3344 52.1215 17.2964L52.1217 17.2962L52.1159 17.2914C52.0725 17.2556 52.0258 17.224 51.9764 17.1973C51.9442 17.1727 51.9104 17.1504 51.875 17.1307L51.867 17.1262L51.8583 17.1233L51.7954 17.102L51.7955 17.1016L51.7865 17.0994C51.7694 17.0954 51.7393 17.0877 51.6968 17.077C50.5891 16.7966 41.0513 14.3826 32.7776 16.7214C32.3269 15.0338 31.7707 13.3761 31.1121 11.7581L31.1123 11.758L31.1091 11.7515L31.1091 11.7515L31.1091 11.7514L31.1091 11.7514L31.109 11.7514L31.109 11.7514L31.109 11.7514L31.109 11.7514L31.109 11.7514L31.109 11.7513L31.109 11.7513L31.109 11.7513L31.109 11.7513L31.109 11.7513L31.109 11.7513L31.109 11.7512L31.109 11.7512L31.1089 11.7512L31.1089 11.7512L31.1089 11.7512L31.1089 11.7512L31.1089 11.7512L31.1089 11.7511L31.1089 11.7511L31.1089 11.7511L31.1089 11.7511L31.1089 11.7511L31.1089 11.751L31.1089 11.751L31.1088 11.751L31.1088 11.751L31.1088 11.751L31.1088 11.7509L31.1088 11.7509L31.1088 11.7509L31.1088 11.7509L31.1088 11.7509L31.1088 11.7508L31.1088 11.7508L31.1087 11.7508L31.1087 11.7508L31.1087 11.7508L31.1087 11.7508L31.1087 11.7508L31.1087 11.7507L31.1087 11.7507L31.1087 11.7507L31.1087 11.7507L31.1087 11.7507L31.1087 11.7507L31.1087 11.7506L31.1087 11.7506L31.1086 11.7506L31.1086 11.7506L31.1086 11.7506L31.1086 11.7506L31.1086 11.7506L31.1086 11.7505L31.1086 11.7505L31.1086 11.7505L31.1086 11.7505L31.1086 11.7505L31.1086 11.7504L31.1086 11.7504L31.1085 11.7504L31.1085 11.7504L31.1085 11.7504L31.1085 11.7504L31.1085 11.7503L31.1085 11.7503L31.1085 11.7503L31.1085 11.7503L31.1085 11.7503L31.1085 11.7502L31.1084 11.7502L31.1084 11.7502L31.1084 11.7502L31.1084 11.7502L31.1084 11.7501L31.1084 11.7501L31.1084 11.7501L31.1084 11.7501L31.1084 11.75L31.1084 11.75L31.1083 11.75L31.1083 11.75L31.1083 11.7499L31.1083 11.7499L31.1083 11.7499L31.1083 11.7499L31.1083 11.7499L31.1083 11.7498L31.1082 11.7498L31.1082 11.7498L31.1082 11.7498L31.1082 11.7497L31.1082 11.7497L31.1082 11.7497L31.1082 11.7496L31.1082 11.7496L31.1081 11.7496L31.1081 11.7496L31.1081 11.7495L31.1081 11.7495L31.1081 11.7495L31.1081 11.7495L31.1081 11.7494L31.108 11.7494L31.108 11.7494L31.108 11.7493L31.108 11.7493L31.108 11.7493L31.108 11.7492L31.108 11.7492L31.1079 11.7492L31.1079 11.7492L31.1079 11.7491L31.1079 11.7491L31.1079 11.7491L31.1079 11.749L31.1078 11.749L31.1078 11.749L31.1078 11.7489L31.1078 11.7489L31.1078 11.7489L31.1078 11.7488L31.1077 11.7488L31.1077 11.7488L31.1077 11.7487L31.1077 11.7487L31.1077 11.7487L31.1077 11.7486L31.1076 11.7486L31.1076 11.7485L31.1076 11.7485L31.1076 11.7485L31.1076 11.7484L31.1076 11.7484L31.1075 11.7484L31.1075 11.7483L31.1075 11.7483L31.1075 11.7482L31.1075 11.7482L31.1074 11.7482L31.1074 11.7481L31.1074 11.7481L31.1074 11.748L31.1074 11.748L31.1073 11.748L31.1073 11.7479L31.1073 11.7479L31.1073 11.7478L31.1073 11.7478L31.1072 11.7478L31.1072 11.7477L31.1072 11.7477L31.1072 11.7476L31.1071 11.7476L31.1071 11.7475L31.1071 11.7475L31.1071 11.7474L31.1071 11.7474L31.107 11.7474L31.107 11.7473L31.107 11.7473L31.107 11.7472L31.1069 11.7472L31.1069 11.7471L31.1069 11.7471L31.1069 11.747L31.1068 11.747L31.1068 11.7469L31.1068 11.7469L31.1068 11.7468L31.1068 11.7468L31.1067 11.7467L31.1067 11.7467L31.1067 11.7466L31.1067 11.7466L31.1066 11.7465L31.1066 11.7465L31.1066 11.7464L31.1065 11.7464L31.1065 11.7463L31.1065 11.7463L31.1065 11.7462L31.1064 11.7462L31.1064 11.7461L31.1064 11.746L31.1064 11.746L31.1063 11.7459L31.1063 11.7459L31.1063 11.7458L31.1063 11.7458L31.1062 11.7457L31.1062 11.7457L31.1062 11.7456L31.1061 11.7455L31.1061 11.7455L31.1061 11.7454L31.106 11.7454L31.106 11.7453L31.106 11.7452L31.106 11.7452L31.1059 11.7451L31.1059 11.7451L31.1059 11.745L31.1058 11.7449L31.1058 11.7449L31.1058 11.7448L31.1057 11.7447L31.1057 11.7447L31.1057 11.7446L31.1056 11.7446L31.1056 11.7445L31.1056 11.7444L31.1056 11.7444L31.1055 11.7443L31.1055 11.7442L31.1055 11.7442L31.1054 11.7441L31.1054 11.744L31.1054 11.744L31.1053 11.7439L31.1053 11.7438L31.1053 11.7437L31.1052 11.7437L31.1052 11.7436L31.1051 11.7435L31.1051 11.7435L31.1051 11.7434L31.105 11.7433L31.105 11.7433L31.105 11.7432L31.1049 11.7431L31.1049 11.743L31.1049 11.743L31.1048 11.7429L31.1048 11.7428L31.1047 11.7427L31.1047 11.7427L31.1047 11.7426L31.1046 11.7425L31.1046 11.7424L31.1046 11.7423L31.1045 11.7423L31.1045 11.7422L31.1044 11.7421L31.1044 11.742L31.1044 11.742L31.1043 11.7419L31.1043 11.7418L31.1042 11.7417L31.1042 11.7416L31.1042 11.7415L31.1041 11.7415L31.1041 11.7414L31.104 11.7413L31.104 11.7412L31.104 11.7411L31.1039 11.741L31.1039 11.741L31.1038 11.7409L31.1038 11.7408L31.1037 11.7407L31.1037 11.7406L31.1037 11.7405L31.1036 11.7404L31.1036 11.7404L31.1035 11.7403L31.1035 11.7402L31.1034 11.7401L31.1034 11.74L31.1033 11.7399L31.1033 11.7398L31.1033 11.7397L31.1032 11.7396L31.1032 11.7395L31.1031 11.7394L31.1031 11.7393L31.103 11.7393L31.103 11.7392L31.1029 11.7391L31.1029 11.739L31.1028 11.7389L31.1028 11.7388L31.1027 11.7387L31.1027 11.7386L31.1026 11.7385L31.1026 11.7384L31.1025 11.7383L31.1025 11.7382L31.1024 11.7381L31.1024 11.738L31.1023 11.7379L31.1023 11.7378L31.1022 11.7377L31.1022 11.7376L31.1021 11.7375L31.1021 11.7374L31.102 11.7373L31.102 11.7372L31.1019 11.7371L31.1019 11.7369L31.1018 11.7368L31.1018 11.7367L31.1017 11.7366L31.1017 11.7365L31.1016 11.7364L31.1016 11.7363L31.1015 11.7362L31.1015 11.7361L31.1014 11.736L31.1014 11.7359L31.1013 11.7357L31.1012 11.7356L31.1012 11.7355L31.1011 11.7354L31.1011 11.7353L31.101 11.7352L31.101 11.7351L31.1009 11.735L31.1008 11.7348L31.1008 11.7347L31.1007 11.7346L31.1007 11.7345L31.1006 11.7344L31.1006 11.7343L31.1005 11.7341L31.1004 11.734L31.1004 11.7339L31.1003 11.7338L31.1003 11.7336L31.1002 11.7335L31.1001 11.7334L31.1001 11.7333L31.1 11.7332L31.1 11.733L31.0999 11.7329L31.0998 11.7328L31.0998 11.7327L31.0997 11.7325L31.0996 11.7324L31.0996 11.7323L31.0995 11.7322L31.0995 11.732L31.0994 11.7319L31.0993 11.7318L31.0993 11.7316L31.0992 11.7315L31.0991 11.7314L31.0991 11.7312L31.099 11.7311L31.0989 11.731L31.0989 11.7308L31.0988 11.7307L31.0987 11.7306L31.0987 11.7304L31.0986 11.7303L31.0985 11.7302L31.0985 11.73L31.0984 11.7299L31.0983 11.7297L31.0983 11.7296L31.0982 11.7295L31.0981 11.7293L31.0981 11.7292L31.098 11.729L31.0979 11.7289L31.0978 11.7288L31.0978 11.7286L31.0977 11.7285L31.0976 11.7283L31.0976 11.7282L31.0975 11.728L31.0974 11.7279L31.0973 11.7277L31.0973 11.7276L31.0972 11.7275L31.0971 11.7273L31.097 11.7272L31.097 11.727L31.0969 11.7269L31.0968 11.7267L31.0967 11.7266L31.0967 11.7264L31.0966 11.7262L31.0965 11.7261L31.0964 11.7259L31.0964 11.7258L31.0963 11.7256L31.0962 11.7255L31.0961 11.7253L31.0961 11.7252L31.096 11.725L31.0959 11.7248L31.0958 11.7247L31.0957 11.7245L31.0957 11.7244L31.0956 11.7242L31.0955 11.724L31.0954 11.7239L31.0953 11.7237L31.0953 11.7236L31.0952 11.7234L31.0951 11.7232L31.095 11.7231L31.0949 11.7229L31.0949 11.7227L31.0948 11.7226L31.0947 11.7224L31.0946 11.7222L31.0945 11.7221L31.0945 11.7219L31.0944 11.7218L31.0943 11.7216L31.0942 11.7215L31.0941 11.7213L31.0941 11.7211L31.094 11.721L31.0939 11.7208L31.0938 11.7207L31.0938 11.7205L31.0937 11.7204L31.0936 11.7202L31.0935 11.72L31.0935 11.7199L31.0934 11.7197L31.0933 11.7196L31.0932 11.7194L31.0932 11.7193L31.0931 11.7191L31.093 11.719L31.0929 11.7188L31.0929 11.7187L31.0928 11.7185L31.0927 11.7184L31.0926 11.7182L31.0926 11.7181L31.0925 11.7179L31.0924 11.7178L31.0923 11.7177L31.0923 11.7175L31.0922 11.7174L31.0921 11.7172L31.0921 11.7171L31.092 11.7169L31.0919 11.7168L31.0918 11.7166L31.0918 11.7165L31.0917 11.7164L31.0916 11.7162L31.0916 11.7161L31.0915 11.7159L31.0914 11.7158L31.0914 11.7157L31.0913 11.7155L31.0912 11.7154L31.0912 11.7152L31.0911 11.7151L31.091 11.715L31.0909 11.7148L31.0909 11.7147L31.0908 11.7146L31.0907 11.7144L31.0907 11.7143L31.0906 11.7141L31.0905 11.714L31.0905 11.7139L31.0904 11.7137L31.0903 11.7136L31.0903 11.7135L31.0902 11.7133L31.0902 11.7132L31.0901 11.7131L31.09 11.713L31.09 11.7128L31.0899 11.7127L31.0898 11.7126L31.0898 11.7124L31.0897 11.7123L31.0896 11.7122L31.0896 11.712L31.0895 11.7119L31.0894 11.7118L31.0894 11.7117L31.0893 11.7115L31.0893 11.7114L31.0892 11.7113L31.0891 11.7112L31.0891 11.711L31.089 11.7109L31.089 11.7108L31.0889 11.7107L31.0888 11.7105L31.0888 11.7104L31.0887 11.7103L31.0886 11.7102L31.0886 11.7101L31.0885 11.7099L31.0885 11.7098L31.0884 11.7097L31.0883 11.7096L31.0883 11.7095L31.0882 11.7093L31.0882 11.7092L31.0881 11.7091L31.0881 11.709L31.088 11.7089L31.0879 11.7087L31.0879 11.7086L31.0878 11.7085L31.0878 11.7084L31.0877 11.7083L31.0876 11.7082L31.0876 11.708L31.0875 11.7079L31.0875 11.7078L31.0874 11.7077L31.0874 11.7076L31.0873 11.7075L31.0873 11.7074L31.0872 11.7072L31.0871 11.7071L31.0871 11.707L31.087 11.7069L31.087 11.7068L31.0869 11.7067L31.0869 11.7066L31.0868 11.7065L31.0868 11.7063L31.0867 11.7062L31.0866 11.7061L31.0866 11.706L31.0865 11.7059L31.0865 11.7058L31.0864 11.7057L31.0864 11.7056L31.0863 11.7055L31.0863 11.7054L31.0862 11.7053L31.0862 11.7052L31.0861 11.705L31.0861 11.7049L31.086 11.7048L31.086 11.7047L31.0859 11.7046L31.0858 11.7045L31.0858 11.7044L31.0857 11.7043L31.0857 11.7042L31.0856 11.7041L31.0856 11.704L31.0855 11.7039L31.0855 11.7038L31.0854 11.7037L31.0854 11.7036L31.0853 11.7035L31.0853 11.7034L31.0852 11.7033L31.0852 11.7032L31.0851 11.7031L31.0851 11.703L31.085 11.7029L31.085 11.7028L31.0849 11.7027L31.0849 11.7026L31.0848 11.7025L31.0848 11.7024L31.0847 11.7023L31.0847 11.7022L31.0846 11.7021L31.0846 11.702L31.0845 11.7019L31.0845 11.7018L31.0844 11.7017L31.0844 11.7016L31.0844 11.7015L31.0843 11.7014L31.0843 11.7013L31.0842 11.7012L31.0842 11.7011L31.0841 11.701L31.0841 11.7009L31.084 11.7008L31.084 11.7007L31.0839 11.7006L31.0839 11.7005L31.0838 11.7004L31.0838 11.7003L31.0837 11.7003L31.0837 11.7002L31.0836 11.7001L31.0836 11.7L31.0836 11.6999L31.0835 11.6998L31.0835 11.6997L31.0834 11.6996L31.0834 11.6995L31.0833 11.6994L31.0833 11.6993L31.0832 11.6992L31.0832 11.6991L31.0831 11.699L31.0831 11.699L31.0831 11.6989L31.083 11.6988L31.083 11.6987L31.0829 11.6986L31.0829 11.6985L31.0828 11.6984L31.0828 11.6983L31.0827 11.6982L31.0827 11.6981L31.0827 11.6981L31.0826 11.698L31.0826 11.6979L31.0825 11.6978L31.0825 11.6977L31.0824 11.6976L31.0824 11.6975L31.0823 11.6974L31.0823 11.6974L31.0823 11.6973L31.0822 11.6972L31.0822 11.6971L31.0821 11.697L31.0821 11.6969L31.082 11.6968L31.082 11.6967L31.082 11.6967L31.0819 11.6966L31.0819 11.6965L31.0818 11.6964L31.0818 11.6963L31.0817 11.6962L31.0817 11.6961L31.0817 11.6961L31.0816 11.696L31.0816 11.6959L31.0815 11.6958L31.0815 11.6957L31.0815 11.6956L31.0814 11.6955L31.0814 11.6955L31.0813 11.6954L31.0813 11.6953L31.0812 11.6952L31.0812 11.6951L31.0812 11.695L31.0811 11.695L31.0811 11.6949L31.081 11.6948L31.081 11.6947L31.081 11.6946L31.0809 11.6945L31.0809 11.6945L31.0808 11.6944L31.0808 11.6943L31.0808 11.6942L31.0807 11.6941L31.0807 11.694L31.0806 11.694L31.0806 11.6939L31.0805 11.6938L31.0805 11.6937L31.0805 11.6936L31.0804 11.6936L31.0804 11.6935L31.0803 11.6934L31.0803 11.6933L31.0803 11.6932L31.0802 11.6932L31.0802 11.6931L31.0801 11.693L31.0801 11.6929L31.0801 11.6928L31.08 11.6927L31.08 11.6927L31.0799 11.6926L31.0799 11.6925L31.0799 11.6924L31.0798 11.6923L31.0798 11.6923L31.0797 11.6922L31.0797 11.6921L31.0797 11.692L31.0796 11.6919L31.0796 11.6919L31.0796 11.6918L31.0795 11.6917L31.0795 11.6916L31.0794 11.6915L31.0794 11.6915L31.0794 11.6914L31.0793 11.6913L31.0793 11.6912L31.0792 11.6911L31.0792 11.6911L31.0792 11.691L31.0791 11.6909L31.0791 11.6908L31.079 11.6907L31.079 11.6907L31.079 11.6906L31.0789 11.6905L31.0789 11.6904L31.0788 11.6904L31.0788 11.6903L31.0788 11.6902L31.0787 11.6901L31.0787 11.69L31.0786 11.69L31.0786 11.6899L31.0786 11.6898L31.0785 11.6897L31.0785 11.6896L31.0785 11.6896L31.0784 11.6895L31.0784 11.6894L31.0783 11.6893L31.0783 11.6892L31.0783 11.6892L31.0782 11.6891L31.0782 11.689L31.0781 11.6889L31.0781 11.6889L31.0781 11.6888L31.078 11.6887L31.078 11.6886L31.0779 11.6885L31.0779 11.6885L31.0779 11.6884L31.0778 11.6883L31.0778 11.6882L31.0778 11.6881L31.0777 11.6881L31.0777 11.688L31.0776 11.6879L31.0776 11.6878L31.0776 11.6877L31.0775 11.6877L31.0775 11.6876L31.0774 11.6875L31.0774 11.6874L31.0774 11.6874L31.0773 11.6873L31.0773 11.6872L31.0772 11.6871L31.0772 11.687L31.0772 11.687L31.0771 11.6869L31.0771 11.6868L31.077 11.6867L31.077 11.6866L31.077 11.6866L31.0769 11.6865L31.0769 11.6864L31.0768 11.6863L31.0768 11.6862L31.0768 11.6862L31.0767 11.6861L31.0767 11.686L31.0767 11.6859L31.0766 11.6858L31.0766 11.6858L31.0765 11.6857L31.0765 11.6856L31.0765 11.6855L31.0764 11.6854L31.0764 11.6854L31.0763 11.6853L31.0763 11.6852L31.0763 11.6851L31.0762 11.685L31.0762 11.685L31.0761 11.6849L31.0761 11.6848L31.0761 11.6847L31.076 11.6846L31.076 11.6845L31.0759 11.6845L31.0759 11.6844L31.0759 11.6843L31.0758 11.6842L31.0758 11.6841L31.0757 11.6841L31.0757 11.684L31.0756 11.6839L31.0756 11.6838L31.0756 11.6837L31.0755 11.6836L31.0755 11.6836L31.0754 11.6835L31.0754 11.6834L31.0754 11.6833L31.0753 11.6832L31.0753 11.6831L31.0752 11.6831L31.0752 11.683L31.0752 11.6829L31.0751 11.6828L31.0751 11.6827L31.075 11.6826L31.075 11.6826L31.0749 11.6825L31.0749 11.6824L31.0749 11.6823L31.0748 11.6822L31.0748 11.6821L31.0747 11.6821L31.0747 11.682L31.0747 11.6819L31.0746 11.6818L31.0746 11.6817L31.0745 11.6816L31.0745 11.6815L31.0744 11.6815L31.0744 11.6814L31.0744 11.6813L31.0743 11.6812L31.0743 11.6811L31.0742 11.681L31.0742 11.6809L31.0741 11.6808L31.0741 11.6808L31.0741 11.6807L31.074 11.6806L31.074 11.6805L31.0739 11.6804L31.0739 11.6803L31.0738 11.6802L31.0738 11.6801L31.0737 11.6801L31.0737 11.68L31.0737 11.6799L31.0736 11.6798L31.0736 11.6797L31.0735 11.6796L31.0735 11.6795L31.0734 11.6794L31.0734 11.6793L31.0734 11.6792L31.0733 11.6792L31.0733 11.6791L31.0732 11.679L31.0732 11.6789L31.0731 11.6788L31.0731 11.6787L31.073 11.6786L31.073 11.6785L31.0729 11.6784L31.0729 11.6783L31.0729 11.6782L31.0728 11.6781L31.0728 11.6781L31.0727 11.678L31.0727 11.6779L31.0726 11.6778L31.0726 11.6777L31.0725 11.6776L31.0725 11.6775L31.0724 11.6774L31.0724 11.6773L31.0723 11.6772L31.0723 11.6771L31.0722 11.677L31.0722 11.6769L31.0722 11.6768L31.0721 11.6767L31.0721 11.6766L31.072 11.6765L31.072 11.6764L31.0719 11.6763L31.0719 11.6762L31.0718 11.6761L31.0718 11.676L31.0717 11.6759L31.0717 11.6758L31.0716 11.6758L52.3779 17.728ZM26.5719 41.5132L26.5282 41.4233M26.5719 41.5132C26.572 41.5132 26.5721 41.5131 26.5721 41.5131L26.5282 41.4233M26.5719 41.5132C24.5518 42.501 22.3513 43.0659 20.1053 43.1734M26.5282 41.4233C24.514 42.4082 22.3194 42.9702 20.0797 43.0745M20.1053 43.1734L20.1241 43.1642L20.0797 43.0745M20.1053 43.1734L20.0866 43.1827L20.0612 43.1952L20.033 43.1926L19.9537 43.1853L19.9463 43.1846L19.9391 43.1828L19.8131 43.1519L19.8001 43.1487L19.8004 43.1479L19.7281 43.1196L19.7233 43.1176L19.7233 43.1175C19.6716 43.094 19.6222 43.0656 19.576 43.0325L19.5556 43.0179L19.5445 42.9955L19.5381 42.9824M20.1053 43.1734C20.0983 43.1738 20.0914 43.1741 20.0844 43.1744L20.0797 43.0745M20.0797 43.0745L19.5381 42.9824M19.5381 42.9824C19.2503 42.7488 17.3647 41.1422 15.8798 38.5406C14.3592 35.8766 13.2558 32.1634 14.726 27.8156C16.4312 22.7616 20.481 18.556 23.5653 15.9221C25.538 14.2244 27.6554 12.7024 29.8932 11.3735L29.8998 11.3696L29.8999 11.3699L30.0918 11.2749L30.0985 11.2716L30.1056 11.2693C30.1691 11.249 30.2345 11.2358 30.3008 11.2299L30.3116 11.2245L30.3321 11.2144L30.3549 11.2142C30.4276 11.2135 30.5001 11.2217 30.5708 11.2388L30.5745 11.2397L30.5745 11.2398C30.6515 11.2615 30.7251 11.2938 30.7932 11.3358L30.8177 11.3508L30.8304 11.3766L30.8325 11.3807C30.8917 11.4216 30.9457 11.4698 30.993 11.5242L30.9985 11.5305L31.0029 11.5377L19.5381 42.9824ZM30.4131 38.5484C30.4374 38.5223 30.4616 38.496 30.4857 38.4697L30.5332 38.5658L30.4131 38.5484ZM19.025 23.3177C21.9911 19.121 26.1702 15.8993 28.655 14.1991L22.9131 31.179L19.025 23.3177ZM19.6934 40.7118C17.881 38.879 14.3445 34.3294 16.3708 28.3369C16.7686 27.1851 17.2807 26.0762 17.8993 25.0268L22.115 33.5505L19.6934 40.7118Z" fill="#64D370" stroke="#64D370" stroke-width="0.2"/>
</svg>
